<?xml version="1.0" encoding="utf-8"?>
<!-- Generator: Adobe Illustrator 27.5.0, SVG Export Plug-In . SVG Version: 6.00 Build 0)  -->
<svg version="1.1" xmlns="http://www.w3.org/2000/svg" xmlns:xlink="http://www.w3.org/1999/xlink" x="0px" y="0px"
	 viewBox="0 0 500 500" style="enable-background:new 0 0 500 500;" xml:space="preserve">
<g id="Floor">
	<ellipse id="Floor_11_" style="fill:#F5F5F5;" cx="249.048" cy="363.551" rx="221.298" ry="114.924"/>
</g>
<g id="Shadow">
	<path id="Shadow_13_" style="fill:#E0E0E0;" d="M438.47,411.628c-19.365,11.77-50.762,11.77-70.127,0
		c-19.366-11.767-19.366-30.848,0-42.617c19.365-11.767,50.762-11.767,70.127,0C457.836,380.78,457.836,399.861,438.47,411.628z"/>
</g>
<g id="Plants">
	<g id="Plants_1_">
		<g id="XMLID_2_">
			<g id="XMLID_1786_">
				<path id="XMLID_1788_" style="fill:#27DEBF;" d="M87.324,364.064c0,0-0.447-8.246-3.996-17.005
					c-3.549-8.759-10.371-17.583-18.231-19.247c-7.86-1.664-11.187,3.62-9.529,8.814c1.428,4.473,7.269,8.186,11.704,12.089
					c4.434,3.903,12.715,13.336,15.016,22.451l4.433,0.484L87.324,364.064z"/>
			</g>
			<g id="XMLID_1783_" style="opacity:0.15;">
				<path id="XMLID_1785_" d="M87.324,364.064c0,0-0.447-8.246-3.996-17.005c-3.549-8.759-10.371-17.583-18.231-19.247
					c-7.86-1.664-11.187,3.62-9.529,8.814c1.428,4.473,7.269,8.186,11.704,12.089c4.434,3.903,12.715,13.336,15.016,22.451
					l4.433,0.484L87.324,364.064z"/>
			</g>
			<g id="XMLID_1779_">
				<path id="XMLID_1781_" style="fill:#FFFFFF;" d="M84.296,368.169c-0.265,0-0.483-0.21-0.493-0.476
					c-0.825-22.912-23.237-35.724-23.464-35.851c-0.238-0.133-0.323-0.434-0.189-0.672c0.133-0.239,0.434-0.324,0.672-0.19
					c0.231,0.129,23.122,13.217,23.967,36.676c0.01,0.272-0.203,0.501-0.476,0.512C84.308,368.169,84.302,368.169,84.296,368.169z"
					/>
			</g>
		</g>
		<g>
			<g id="XMLID_1775_">
				<path id="XMLID_1777_" style="fill:#27DEBF;" d="M84.553,399.486c0,0-4.583,2.897-11.742,1.664
					c-2.281-0.393-4.525-1.271-6.16-2.958c-1.847-1.907-2.142-3.825-2.664-6.376c-0.215-1.051-0.445-2.139-1.076-3.007
					c-1.532-2.108-4.595-2.07-7.142-2.62c-3.62-0.781-6.95-3.381-7.998-6.933c-1.048-3.552,0.651-7.882,4.083-9.272
					c-1.403-0.899-2.805-1.799-4.208-2.698c-1.276-0.818-2.566-1.648-3.602-2.755c-1.036-1.107-1.807-2.537-1.818-4.053
					c-0.017-2.236,1.661-4.231,3.701-5.147c2.04-0.916,4.371-0.929,6.592-0.67c2.242,0.261,4.453,0.781,6.576,1.547
					c0.596,0.215,1.209,0.454,1.842,0.414c0.833-0.052,1.551-0.572,2.248-1.032c4.817-3.18,12.66-2.94,15.244,3.056
					c0.38,0.882,0.607,1.825,1.011,2.696c1.499,3.227,5.711,2.257,8.429,3.767c1.767,0.982,2.829,2.941,3.166,4.934
					c0.54,3.192-0.349,6.835-0.939,9.993c-0.572,3.062-1.34,6.087-2.194,9.082c-0.703,2.467-1.47,4.915-2.291,7.345
					C85.435,396.989,85.055,399.169,84.553,399.486z"/>
			</g>
			<path id="XMLID_1773_" style="fill:#FFFFFF;" d="M87.435,392.102c-2.459-7.022-6.698-12.736-11.503-17.32
				c-0.051-0.112-0.143-0.202-0.264-0.25c-1.515-1.427-3.084-2.742-4.669-3.952c-1.109-6.65,1.566-12.487,1.593-12.545
				c0.115-0.247,0.009-0.541-0.238-0.656c-0.248-0.117-0.541-0.01-0.656,0.237c-0.111,0.238-2.578,5.612-1.812,12.133
				c-10.581-7.717-21.489-10.806-21.671-10.856c-0.261-0.068-0.535,0.083-0.607,0.346c-0.072,0.263,0.082,0.534,0.345,0.607
				c0.205,0.056,14.188,4.015,25.715,14.188c-7.07-1.237-15.521,2.18-15.91,2.34c-0.252,0.103-0.373,0.392-0.269,0.644
				c0.078,0.191,0.263,0.306,0.457,0.306c0.062,0,0.126-0.012,0.187-0.037c0.1-0.041,10.022-4.053,17.032-1.881
				c4.739,4.504,8.92,10.119,11.338,17.024c0.071,0.203,0.262,0.331,0.466,0.331c0.054,0,0.109-0.009,0.163-0.028
				C87.389,392.642,87.525,392.359,87.435,392.102z"/>
		</g>
	</g>
</g>
<g id="Board">
	<g id="XMLID_862_">
		<g id="XMLID_944_">
			<polygon id="XMLID_1768_" style="fill:#27DEBF;" points="98.491,388.037 307.537,267.345 307.537,46.052 98.49,166.745 			"/>
		</g>
		<g id="XMLID_943_">
			<polygon id="XMLID_1276_" style="fill:#37474F;" points="88.841,161.175 98.49,166.745 307.537,46.052 317.184,29.342 			"/>
		</g>
		<g id="XMLID_935_">
			<polygon id="XMLID_1274_" style="fill:#37474F;" points="317.184,272.915 317.184,29.342 307.537,46.052 307.537,267.345 			"/>
		</g>
		<g id="XMLID_923_">
			<polygon id="XMLID_1245_" style="fill:#37474F;" points="88.841,161.175 98.49,166.745 98.491,388.037 88.842,404.749 			"/>
		</g>
		<g id="XMLID_874_">
			<polygon id="XMLID_1195_" style="fill:#37474F;" points="98.491,388.037 307.537,267.345 317.184,272.915 88.842,404.749 			"/>
		</g>
		<g id="XMLID_1191_" style="opacity:0.5;">
			<polygon id="XMLID_1196_" style="fill:#455A64;" points="88.841,161.175 98.49,166.745 307.537,46.052 317.184,29.342 			"/>
		</g>
		<g id="XMLID_869_" style="opacity:0.5;">
			<polygon id="XMLID_986_" style="fill:#455A64;" points="98.491,388.037 307.537,267.345 317.184,272.915 88.842,404.749 			"/>
		</g>
		<g id="XMLID_871_">
			<polygon id="XMLID_1189_" style="fill:#455A64;" points="317.184,29.342 310.751,25.628 82.409,157.462 88.841,161.175 			"/>
		</g>
		<g id="XMLID_870_">
			<polygon id="XMLID_988_" style="fill:#263238;" points="82.409,157.462 88.841,161.175 88.842,404.749 82.41,401.035 			"/>
		</g>
		<g id="XMLID_865_" style="opacity:0.1;">
			<polygon id="XMLID_984_" points="307.537,46.052 304.32,47.909 304.319,265.489 98.489,384.325 98.491,388.037 307.537,267.345 
							"/>
		</g>
	</g>
</g>
<g id="Characters_boxes">
	<g id="XMLID_967_">
		<g id="XMLID_1878_">
			<g id="XMLID_1994_">
				<path id="XMLID_1997_" style="fill:#E0E0E0;" d="M296.296,173.956l-0.059-2.925l-3.477-1.983l0,0l-0.003-0.002v0.001
					c-0.284-0.163-0.676-0.139-1.109,0.111l-48.483,27.991c-0.868,0.501-1.572,1.721-1.572,2.723l0,61.661
					c0,0.491,0.171,0.836,0.445,1.005v0.004l0.015,0.008c0.001,0.001,0.003,0.001,0.004,0.002l3.481,1.986l0.007-3.466l46.104-26.57
					c0.869-0.501,1.573-1.719,1.573-2.722v-57.824H296.296z"/>
				<path id="XMLID_1996_" style="fill:#FAFAFA;" d="M296.236,171.031l-3.477-1.983l0,0l-0.003-0.002v0.001
					c-0.284-0.163-0.676-0.139-1.109,0.111l-48.483,27.991c-0.379,0.219-0.723,0.579-0.995,0.994l4.929,2.846l46.121-26.048
					L296.236,171.031z"/>
				<path id="XMLID_1995_" style="fill:#F0F0F0;" d="M246.638,199.13l48.483-27.991c0.868-0.501,1.573-0.095,1.573,0.908v61.714
					c0,1.003-0.704,2.222-1.573,2.722l-48.481,27.941c-0.869,0.501-1.573,0.094-1.573-0.909l0-61.661
					C245.066,200.851,245.77,199.632,246.638,199.13z"/>
			</g>
			<g id="XMLID_1892_">
				<defs>
					<path id="XMLID_1893_" d="M246.638,199.13l48.483-27.991c0.868-0.501,1.572-0.095,1.572,0.908v61.714
						c0,1.003-0.704,2.222-1.573,2.722l-48.482,27.941c-0.869,0.501-1.573,0.094-1.573-0.909l0-61.661
						C245.066,200.851,245.77,199.632,246.638,199.13z"/>
				</defs>
				<clipPath id="XMLID_00000113349993164476558490000000529962599659122336_">
					<use xlink:href="#XMLID_1893_"  style="overflow:visible;"/>
				</clipPath>
				<g id="XMLID_1896_" style="clip-path:url(#XMLID_00000113349993164476558490000000529962599659122336_);">
					<g id="XMLID_1966_">
						<g id="Character_boy_3_">
							<path id="XMLID_1993_" style="fill:#FFA8A7;" d="M280.517,225.208c0,0,3.809-1.178,6.984,3.828
								c2.158,3.403,9.696,16.33,9.696,16.33s14.669-7.778,15.495-8.794c0.826-1.016,0.776-3.085,0.899-4.194
								c0.205-1.857-0.474-3.453-0.571-4.123c-0.169-1.169,1.508-1.231,2.338,0.387c0.607,1.182,0.654,2.534,1.175,2.55
								c0.178,0.006,1.821-1.495,2.06-1.756c0.909-0.994,2.551-2.66,3.795-2.428c0.411,0.076,0.731,0.422,0.829,0.893
								c0.153,0.743,0.094,1.363,0.466,1.983c0.158,0.263,0.401,0.47,0.491,0.797c0.117,0.428-0.053,0.839-0.015,1.286
								c0.052,0.614,0.646,0.872,0.732,1.471c0.063,0.434-0.158,0.935-0.155,1.391c0.002,0.294,0.096,0.554,0.094,0.849
								c-0.003,0.578-0.369,1.162-0.755,1.632c-1.359,1.654-2.746,2.597-4.354,3.647c-1.337,0.873-3.102,1.65-4.613,2.472
								c-1.512,0.822-18.801,14.086-21.102,12.518c-2.301-1.568-13.839-18.377-13.839-18.377
								C277.523,230.151,280.517,225.208,280.517,225.208z"/>
							<g id="XMLID_1991_">
								<path id="XMLID_1992_" style="fill:#455A64;" d="M273.824,225.321c0,0,4.199-1.703,6.924-1.53
									c2.725,0.174,4.742,0.952,6.74,4.164c2.668,4.289,7.083,11.695,7.083,11.695s-2.545,5.861-8.579,9.178l-8.135-12.275
									L273.824,225.321z"/>
							</g>
							<g id="Character_boy_4_">
								<g id="XMLID_1967_">
									<path id="XMLID_1990_" style="fill:#27DEBF;" d="M260.498,232.74c-1.356,1.063-2.427,2.626-2.971,4.367
										c-0.485,1.552-0.903,3.678-0.903,6.396v13.951l-0.177,26.391c8.851,3.015,20.103,0.361,29.545-10.132
										c0,0-0.527-33.767-0.527-39.314c0-0.251-0.005-0.503-0.017-0.757c-0.343-7.831-7.098-11.457-13.751-7.698l-5.588,3.157
										L260.498,232.74L260.498,232.74z"/>
									<path id="XMLID_1770_" style="opacity:0.2;" d="M260.498,232.74c-1.356,1.063-2.427,2.626-2.971,4.367
										c-0.485,1.552-0.903,3.678-0.903,6.396v13.951l-0.177,26.391c8.851,3.015,20.103,0.361,29.545-10.132
										c0,0-0.527-33.767-0.527-39.314c0-0.251-0.005-0.503-0.017-0.757c-0.343-7.831-7.098-11.457-13.751-7.698l-5.588,3.157
										L260.498,232.74L260.498,232.74z"/>
									<g id="XMLID_1969_">
										<g id="XMLID_1980_">
											<path id="XMLID_852_" style="fill:#263238;" d="M279.68,201.256c-1-0.995-1.621-2.542-0.431-3.695
												c0.301-0.292,0.627-0.52,1.044-0.579c0.478-0.068,0.912-0.01,1.384-0.118c0.553-0.127,1.112-0.219,1.658-0.379
												c1.068-0.313,2.088-0.787,3.014-1.405c0.076-0.05,0.164-0.104,0.251-0.079c0.104,0.03,0.146,0.153,0.168,0.258
												c0.467,2.217-0.761,4.564-2.629,5.847c-0.666,0.457-1.425,0.807-2.229,0.88
												C281.105,202.058,280.252,201.826,279.68,201.256z"/>
											<path id="XMLID_1987_" style="fill:#263238;" d="M261.685,213.451c0,0,1.375,7.09,1.926,8.167
												c0.551,1.078,1.691,1.121,1.691,1.121l-0.096-5.221L261.685,213.451z"/>
											<path id="XMLID_1986_" style="fill:#263238;" d="M263.411,202.305c0,0-1.481,0.104-2.635,1.776
												c-1.132,1.639-0.5,5.652,0.91,9.371l2.59-0.351L263.411,202.305z"/>
											<path id="XMLID_1984_" style="fill:#B17A7B;" d="M265.052,212.895c-0.519,0.497-1.26-0.456-1.9-1.058
												c-0.64-0.602-2.731-1.099-3.774,1.717c-1.063,2.871,0.921,5.756,2.566,5.911c2.836,0.268,3.262-1.947,3.262-1.947
												l0.096,12.106c4.758,5.046,13.097-0.902,9.348-3.136l-0.008-3.593c0,0,2.57-0.238,3.824-0.798
												c2.086-0.931,3.398-3.183,4.031-5.96c1.016-4.46,0.926-7.106,0.588-15.15c-0.232-5.52-10.085-7.23-14.995-2.346
												C263.179,203.527,265.052,212.895,265.052,212.895z"/>
											<path id="XMLID_1983_" style="fill:#263238;" d="M265.052,213.904c-0.261,0.076-1.254-1.561-1.901-2.067
												c-0.896-0.701,0.26-9.532,0.26-9.532c-1.036-2.273,0.873-5.715,2.871-7.114c1.495-1.047,3.14-1.444,4.732-1.738
												c1.977-0.365,3.951-0.585,5.944-0.796c1.086-0.115,2.172-0.279,3.227-0.566c1.002-0.273,1.974-0.791,2.944-1.183
												c0.286-0.115,0.611-0.23,0.892-0.104c1.191,0.538,0.41,3.373,0.144,4.304c-0.447,1.568-1.251,3.036-2.353,4.239
												c-0.374,0.408-0.781,0.788-1.243,1.092c-0.544,0.359-1.153,0.607-1.767,0.826c-2.864,1.023-5.932,1.473-8.97,1.314
												c-0.573-0.03-1.169-0.078-1.702,0.134c-1.239,0.493-1.182,2.651-1.366,3.744
												C266.307,209.165,265.929,213.649,265.052,213.904z"/>
											<path id="XMLID_1982_" style="fill:#263238;" d="M263.416,202.966l-3.14-1.105c0.446-1.158,1.51-1.85,2.377-1.545
												C263.52,200.622,263.861,201.808,263.416,202.966z"/>
											<path id="XMLID_1981_" style="fill:#9A585A;" d="M274.642,222.896c0,0-4.656,0.165-6.284-0.399
												c-1.089-0.377-1.987-1.295-2.25-1.968c0,0,0.305,1.514,1.278,2.69c1.19,1.438,7.256,1.107,7.256,1.107L274.642,222.896z"
												/>
										</g>
										<g id="XMLID_1973_">
											<path id="XMLID_1979_" style="fill:#263238;" d="M274.055,210.47c0,0.618-0.418,1.23-0.933,1.367
												c-0.516,0.137-0.933-0.254-0.933-0.872c0-0.618,0.418-1.23,0.933-1.367C273.637,209.461,274.055,209.852,274.055,210.47z
												"/>
											<path id="XMLID_1978_" style="fill:#263238;" d="M272.71,207.328l-1.996,1.807c-0.294-0.583-0.086-1.461,0.465-1.96
												C271.73,206.676,272.415,206.745,272.71,207.328z"/>
											<path id="XMLID_1977_" style="fill:#9A585A;" d="M274.22,216.537l2.13,0.352c-0.211,0.761-0.858,1.3-1.447,1.203
												C274.315,217.995,274.01,217.298,274.22,216.537z"/>
											<path id="XMLID_1976_" style="fill:#263238;" d="M282.308,205.951l-1.82-1.131c0.371-0.701,1.08-1.016,1.582-0.704
												C282.573,204.428,282.679,205.249,282.308,205.951z"/>
											<path id="XMLID_1975_" style="fill:#263238;" d="M281.815,208.084c0,0.618-0.418,1.23-0.933,1.366
												c-0.515,0.136-0.933-0.254-0.933-0.872c0-0.618,0.418-1.23,0.933-1.367C281.397,207.075,281.815,207.466,281.815,208.084
												z"/>
											<polygon id="XMLID_1974_" style="fill:#9A585A;" points="277.203,208.455 277.312,214.959 280.656,213.212 											
												"/>
										</g>
									</g>
								</g>
							</g>
						</g>
					</g>
					<g id="XMLID_1898_">
						<path id="XMLID_1899_" style="fill:#B17A7B;" d="M247.333,272.647c1.959-26.889,5.942-36.526,12.491-39.357
							c2.263,1.685,2.808,9.589,0.442,15.593c0,0-5.087,17.925-5.375,24.018c-0.253,5.353,0.381,12.743,1.041,16.952
							c0.117,0.746,0.495,1.335,1.029,1.682c1.435,0.931,1.342,2.287,2.366,3.569c0.802,1.004,1.551,1.178,1.397,1.554
							c-0.198,0.483-0.919,1.319-1.995,1.069c-0.542-0.126-0.919-0.389-1.758-0.949c0,0,0.473,1.899,1.848,3.999
							c1.864,2.846,1.775,4.764-2.598,5.41c-2.74,0.405-4.734-1.295-6.113-8.161c-0.397-1.978-1.332-5.537-1.72-8.1
							C247.272,282.565,247.018,276.975,247.333,272.647z"/>
					</g>
					<path id="XMLID_1897_" style="fill:#455A64;" d="M261.685,231.97c0,0-4.772,1.67-7.181,5.576
						c-2.409,3.906-4.708,10.196-6.321,21.357c0,0,3.019,4.127,10.895,0.697c0,0,3.427-14.242,3.733-19.871
						C263.145,233.59,261.685,231.97,261.685,231.97z"/>
				</g>
			</g>
		</g>
		<g id="XMLID_1855_">
			<g id="XMLID_1861_">
				<path id="XMLID_1867_" style="fill:#E0E0E0;" d="M296.296,247.707l-0.059-2.925l-3.477-1.984l0,0l-0.003-0.001v0.001
					c-0.284-0.163-0.676-0.139-1.109,0.111L243.164,270.9c-0.868,0.501-1.572,1.721-1.572,2.724l0,14.441
					c0,0.491,0.171,0.836,0.445,1.005v0.004l0.015,0.008c0.001,0.001,0.003,0.001,0.004,0.002l3.481,1.986l0.007-3.466l46.104-26.57
					c0.869-0.501,1.573-1.72,1.573-2.722v-10.604H296.296z"/>
				<path id="XMLID_1866_" style="fill:#FAFAFA;" d="M296.236,244.782l-3.477-1.984l0,0l-0.003-0.001v0.001
					c-0.284-0.163-0.676-0.139-1.109,0.111L243.164,270.9c-0.379,0.219-0.723,0.579-0.995,0.994l4.929,2.846l46.121-26.049
					L296.236,244.782z"/>
				<path id="XMLID_1865_" style="fill:#F0F0F0;" d="M246.638,272.882l48.483-27.991c0.868-0.501,1.573-0.095,1.573,0.908v14.494
					c0,1.003-0.704,2.222-1.573,2.722l-48.481,27.941c-0.869,0.501-1.573,0.094-1.573-0.909l0-14.441
					C245.066,274.602,245.77,273.383,246.638,272.882z"/>
			</g>
			<g id="stars_5_">
				<path id="XMLID_1860_" style="fill:#27DEBF;" d="M251.253,274.23l0.882,1.874c0.056,0.118,0.163,0.16,0.288,0.112l1.972-0.757
					c0.313-0.12,0.438,0.321,0.212,0.746l-1.427,2.679c-0.09,0.169-0.131,0.361-0.11,0.514l0.337,2.425
					c0.053,0.385-0.274,0.891-0.554,0.857l-1.764-0.218c-0.111-0.014-0.244,0.063-0.355,0.205l-1.764,2.255
					c-0.28,0.358-0.608,0.23-0.554-0.217l0.337-2.814c0.021-0.178-0.02-0.322-0.11-0.387l-1.427-1.031
					c-0.227-0.164-0.102-0.749,0.212-0.991l1.972-1.521c0.124-0.096,0.232-0.262,0.288-0.445l0.882-2.892
					C250.708,274.167,251.113,273.933,251.253,274.23z"/>
				<path id="XMLID_1859_" style="fill:#27DEBF;" d="M261.238,268.514l0.882,1.874c0.056,0.118,0.163,0.16,0.288,0.113l1.972-0.757
					c0.313-0.12,0.438,0.321,0.212,0.746l-1.427,2.679c-0.09,0.169-0.131,0.361-0.11,0.514l0.337,2.425
					c0.053,0.385-0.274,0.891-0.554,0.857l-1.764-0.218c-0.111-0.014-0.244,0.063-0.355,0.205l-1.764,2.255
					c-0.28,0.358-0.608,0.23-0.554-0.217l0.337-2.814c0.021-0.177-0.02-0.322-0.11-0.387l-1.427-1.031
					c-0.227-0.164-0.102-0.749,0.212-0.991l1.972-1.521c0.124-0.096,0.232-0.262,0.288-0.445l0.882-2.892
					C260.693,268.45,261.098,268.216,261.238,268.514z"/>
				<path id="XMLID_1858_" style="fill:#27DEBF;" d="M271.222,262.797l0.882,1.874c0.056,0.118,0.163,0.16,0.288,0.113l1.972-0.757
					c0.313-0.12,0.438,0.321,0.212,0.746l-1.427,2.679c-0.09,0.169-0.131,0.361-0.11,0.514l0.337,2.425
					c0.053,0.385-0.274,0.891-0.554,0.857l-1.764-0.218c-0.111-0.014-0.244,0.063-0.355,0.205l-1.764,2.255
					c-0.28,0.358-0.608,0.23-0.554-0.217l0.337-2.814c0.021-0.177-0.02-0.322-0.11-0.387l-1.427-1.031
					c-0.227-0.164-0.102-0.749,0.212-0.991l1.972-1.521c0.124-0.096,0.232-0.262,0.288-0.445l0.882-2.892
					C270.677,262.733,271.082,262.5,271.222,262.797z"/>
				<path id="XMLID_1857_" style="fill:#27DEBF;" d="M281.207,257.081l0.882,1.874c0.056,0.118,0.163,0.16,0.288,0.112l1.972-0.757
					c0.313-0.12,0.438,0.321,0.212,0.746l-1.427,2.679c-0.09,0.169-0.131,0.361-0.11,0.514l0.337,2.425
					c0.054,0.385-0.274,0.892-0.554,0.857l-1.764-0.218c-0.111-0.014-0.244,0.063-0.355,0.205l-1.764,2.255
					c-0.28,0.358-0.608,0.23-0.554-0.217l0.337-2.814c0.021-0.177-0.02-0.322-0.11-0.387l-1.427-1.031
					c-0.227-0.164-0.102-0.749,0.212-0.991l1.972-1.521c0.124-0.096,0.232-0.262,0.288-0.445l0.882-2.892
					C280.661,257.017,281.066,256.783,281.207,257.081z"/>
				<path id="XMLID_1856_" style="fill:#27DEBF;" d="M291.191,251.364l0.882,1.874c0.056,0.118,0.163,0.16,0.288,0.113l1.972-0.757
					c0.313-0.12,0.438,0.321,0.212,0.746l-1.427,2.679c-0.09,0.169-0.131,0.361-0.11,0.514l0.337,2.425
					c0.054,0.385-0.274,0.891-0.554,0.857l-1.764-0.218c-0.111-0.014-0.244,0.063-0.355,0.205l-1.764,2.255
					c-0.28,0.358-0.608,0.23-0.554-0.217l0.337-2.814c0.021-0.177-0.02-0.322-0.11-0.387l-1.427-1.031
					c-0.227-0.164-0.102-0.749,0.212-0.991l1.972-1.521c0.124-0.096,0.232-0.262,0.288-0.445l0.882-2.892
					C290.646,251.301,291.051,251.067,291.191,251.364z"/>
			</g>
		</g>
	</g>
	<g id="XMLID_966_">
		<g id="XMLID_1998_">
			<g id="XMLID_2443_">
				<path id="XMLID_2450_" style="fill:#E0E0E0;" d="M296.296,68.735l-0.059-2.925l-3.477-1.984l0,0l-0.003-0.002v0
					c-0.284-0.163-0.676-0.139-1.109,0.111l-48.483,27.991c-0.868,0.501-1.572,1.721-1.572,2.724l0,61.661
					c0,0.491,0.171,0.836,0.445,1.005v0.004l0.015,0.008c0.001,0.001,0.003,0.002,0.004,0.002l3.481,1.986l0.007-3.466l46.104-26.57
					c0.869-0.501,1.573-1.719,1.573-2.722V68.735H296.296z"/>
				<path id="XMLID_2447_" style="fill:#FAFAFA;" d="M296.236,65.81l-3.477-1.984l0,0l-0.003-0.002v0
					c-0.284-0.163-0.676-0.139-1.109,0.111l-48.483,27.991c-0.379,0.219-0.723,0.579-0.995,0.994l4.929,2.846l46.121-26.049
					L296.236,65.81z"/>
				<path id="XMLID_2444_" style="fill:#F0F0F0;" d="M246.638,93.91l48.483-27.991c0.868-0.501,1.573-0.095,1.573,0.908v61.714
					c0,1.003-0.704,2.222-1.573,2.722l-48.481,27.941c-0.869,0.501-1.573,0.094-1.573-0.909l0-61.661
					C245.066,95.63,245.77,94.411,246.638,93.91z"/>
			</g>
			<g id="XMLID_2004_">
				<defs>
					<path id="XMLID_2271_" d="M246.638,93.91l48.483-27.991c0.868-0.501,1.573-0.095,1.573,0.908v61.714
						c0,1.003-0.704,2.222-1.573,2.722l-48.481,27.941c-0.869,0.501-1.573,0.094-1.573-0.909l0-61.661
						C245.066,95.63,245.77,94.411,246.638,93.91z"/>
				</defs>
				<clipPath id="XMLID_00000126294455549545157270000008033788319915369881_">
					<use xlink:href="#XMLID_2271_"  style="overflow:visible;"/>
				</clipPath>
				<g id="XMLID_2302_" style="clip-path:url(#XMLID_00000126294455549545157270000008033788319915369881_);">
					<g id="Character_9_">
						<g id="XMLID_2337_">
							<path id="XMLID_2440_" style="fill:#B16668;" d="M284.103,157.544c-5.442-23.862-11.665-28.073-5.851-33.043
								c5.98-2.276,9.061,0.976,10.103,7.969c0.51,3.419,1.616,17.725,3.006,23.072c1.221,4.698,2.862,10.516,4.687,13.876
								c0.323,0.595,0.866,0.955,1.5,1.046c1.702,0.245,2.203,1.201,3.588,1.906c1.085,0.552,1.886,0.412,1.835,0.794
								c-0.066,0.491-0.561,1.49-1.714,1.692c-0.58,0.102-1.033,0.022-2.032-0.134c0,0,1,1.448,2.964,2.72
								c2.662,1.723,3.101,3.405-1.124,5.655c-2.648,1.41-5.124,0.722-8.406-4.643c-0.945-1.546-2.43-3.989-3.308-6.221
								C287.065,166.422,284.978,161.384,284.103,157.544z"/>
							<path id="XMLID_851_" style="fill:#455A64;" d="M278.252,124.501c0,0,2.786-1.311,4.832-0.872
								c2.047,0.439,4.556,2.116,5.45,8.49c0,0-0.549,1.985-3.403,3.993L278.252,124.501z"/>
							<g id="XMLID_2362_">
								<path id="XMLID_2432_" style="fill:#27DEBF;" d="M268.688,127.38L268.688,127.38c-5.913,2.054-6.328,5.463-7.808,9.466
									c-1.126,3.047-1.139,6.235-0.28,8.876l4.121,12.661c0,0-2.684,5.92-4.169,11.59c10.341,3.894,23.254-3.07,26.363-8.766
									c0.132-1.067-0.668-8.917-1.16-14.054c1.821-5.764,2.302-9.236,1.534-12.518c-1.426-6.091-6.964-10.914-9.414-10.028
									L268.688,127.38z"/>
								<path id="XMLID_1_" style="opacity:0.1;" d="M268.688,127.38L268.688,127.38c-5.913,2.054-6.328,5.463-7.808,9.466
									c-1.126,3.047-1.139,6.235-0.28,8.876l4.121,12.661c0,0-2.684,5.92-4.169,11.59c10.341,3.894,23.254-3.07,26.363-8.766
									c0.132-1.067-0.668-8.917-1.16-14.054c1.821-5.764,2.302-9.236,1.534-12.518c-1.426-6.091-6.964-10.914-9.414-10.028
									L268.688,127.38z"/>
								<g id="XMLID_2368_">
									<g id="XMLID_2422_">
										<path id="XMLID_2427_" style="fill:#263238;" d="M275.719,119.226l-4.362,1.19c-6.075,1.658-11.02-2.679-11.046-9.687v0
											c-0.031-8.397,5.845-16.814,13.124-18.801l0,0c7.279-1.986,13.206,3.211,13.237,11.608l0,0
											C286.698,110.544,281.794,117.569,275.719,119.226z"/>
										<path id="XMLID_2426_" style="fill:#263238;" d="M270.021,89.267c1.882,2.695-0.115,5.417-2.886,8.332
											s-5.267,4.922-7.149,2.227c-1.882-2.695-0.847-6.544,1.924-9.459C264.681,87.451,268.139,86.571,270.021,89.267z"/>
										<path id="XMLID_2423_" style="fill:#263238;" d="M263.238,100.983l-2.789,3.129c-0.607-0.722-0.474-2.008,0.296-2.872
											C261.515,100.375,262.631,100.26,263.238,100.983z"/>
									</g>
									<g id="XMLID_2370_">
										<g id="XMLID_2417_">
											<path id="XMLID_2418_" style="fill:#B16668;" d="M281.583,96.523c1.396,0.569,3.131,4.139,2.993,12.653
												c-0.117,7.216-2.127,9.539-3.138,10.326c-1.011,0.787-2.965,1.009-4.865,1.162l0.108,4.334c0,0,3.201,2.167,3.043,4.187
												c-0.158,2.02-4.436,4.081-6.899,2.821c-2.144-1.097-3.99-2.801-4.431-3.223c-0.066-0.064-0.1-0.158-0.1-0.27
												l-0.007-10.877c0,0-1.113,1.557-3.014,0.163c-1.57-1.151-2.107-3.667-0.893-5.427c1.213-1.76,3.468-1.986,4.339-0.187
												c0,0,3.028-0.699,7.051-4.354C279.792,104.177,281.325,99.379,281.583,96.523z"/>
										</g>
										<g id="XMLID_2400_">
											<path id="XMLID_2401_" style="fill:#263238;" d="M276.949,109.176c0.025,0.511-0.305,1.04-0.737,1.181
												c-0.432,0.141-0.801-0.158-0.826-0.67c-0.024-0.511,0.305-1.04,0.737-1.181
												C276.555,108.365,276.924,108.665,276.949,109.176z"/>
										</g>
										<g id="XMLID_2396_">
											<path id="XMLID_2399_" style="fill:#9A4A4D;" d="M277.854,115.295l1.82,0.173c-0.149,0.641-0.676,1.122-1.179,1.074
												C277.992,116.494,277.706,115.936,277.854,115.295z"/>
										</g>
										<g id="XMLID_2391_">
											<path id="XMLID_2395_" style="fill:#263238;" d="M284.027,104.747l-1.587-0.834c0.287-0.6,0.875-0.9,1.313-0.67
												C284.191,103.474,284.314,104.147,284.027,104.747z"/>
										</g>
										<g id="XMLID_2388_">
											<path id="XMLID_2390_" style="fill:#263238;" d="M283.802,106.945c0.025,0.511-0.305,1.04-0.737,1.181
												c-0.431,0.141-0.801-0.158-0.825-0.669c-0.025-0.511,0.305-1.04,0.737-1.181
												C283.408,106.135,283.778,106.434,283.802,106.945z"/>
										</g>
										<g id="XMLID_2386_">
											<polygon id="XMLID_2387_" style="fill:#9A4A4D;" points="280.147,106.96 280.122,112.854 282.597,111.292 											"/>
										</g>
										<path id="XMLID_982_" style="fill:#27DEBF;" d="M287.07,105.624c-0.209-1.41-1.599-2.046-3.079-1.572l-0.138,0.044
											c-1.08,0.346-2.047,1.236-2.515,2.272c-0.379-0.185-0.894-0.182-1.477,0.035c-0.495,0.184-0.941,0.485-1.29,0.843
											c-0.563-0.693-1.581-0.939-2.652-0.596l-0.138,0.044c-1.369,0.438-2.552,1.747-2.767,3.124l-4.867,1.607
											c0.087,0.079,0.249,0.238,0.336,0.368l4.497-1.489c0.027,1.59,1.365,2.483,2.947,1.977l0.434-0.139
											c1.634-0.523,2.874-2.327,2.637-3.92c-0.034-0.228-0.108-0.427-0.199-0.613c0.287-0.314,0.679-0.587,1.111-0.747
											c0.508-0.189,0.961-0.174,1.244,0.022c-0.06,0.222-0.105,0.446-0.113,0.672c-0.062,1.689,1.324,2.652,2.958,2.129
											l0.434-0.139C286.067,109.021,287.306,107.217,287.07,105.624z M278.527,109.102c-0.159,1.16-1.153,2.24-2.279,2.6
											l-0.259,0.083c-1.127,0.361-2.2-0.058-2.474-1.078c-0.371-1.378,0.702-3.038,2.143-3.499l0.434-0.139
											C277.533,106.607,278.742,107.536,278.527,109.102z M286.6,106.505c-0.159,1.16-1.153,2.24-2.279,2.601l-0.259,0.083
											c-1.127,0.361-2.199-0.058-2.474-1.078c-0.371-1.378,0.701-3.038,2.143-3.499l0.434-0.139
											C285.605,104.01,286.815,104.939,286.6,106.505z"/>
										<g id="XMLID_2371_">
											<path id="XMLID_2379_" style="fill:#9A4A4D;" d="M276.573,120.665c-2.002,0.243-6.123,0.002-6.771-1.7
												c0,0,0.218,1.121,1.452,2.002c1.234,0.88,5.355,1.143,5.355,1.143L276.573,120.665z"/>
										</g>
									</g>
								</g>
								<path id="XMLID_2363_" style="opacity:0.1;" d="M271.333,168.376c-3.397-0.019-5.552-3.409-4.654-7.544
									c0.034-0.157,0.069-0.293,0.105-0.404c0.665-2.024,2.094-2.164,2.094-2.164l0,0c-1.34-0.667-1.972-2.255-2.286-3.992
									l-1.556-8.054c0,0-0.28-1.832,0.319-4.27l-4.156-4.437c0,0-0.298,0.32-0.768,0.822c-0.648,2.578-0.551,5.176,0.17,7.39
									l4.121,12.661c0,0-2.545,5.44-4.169,11.59c7.621,2.87,16.634-0.159,22.096-4.23
									C278.334,167.672,274.337,168.392,271.333,168.376z"/>
							</g>
						</g>
					</g>
					<g id="XMLID_2303_">
						<g id="XMLID_2328_">
							<path id="XMLID_2336_" style="fill:#B16668;" d="M249.968,166.662c4.598-22.933,7.498-32.818,12.541-36.309
								c1.482-1.026,3.411-1.692,3.411-1.692c0.692,0.262,0.762,1.775,0.897,2.748c0.478,3.439-0.388,8.958-2.62,13.129
								c0,0-6.709,18.141-7.779,24.238c-0.937,5.336-1.997,12.011-1.939,16.382c0.011,0.785,0.276,1.479,0.74,1.933
								c1.231,1.207,1.235,2.442,2.03,3.928c0.622,1.161,1.301,1.475,1.107,1.826c-0.249,0.451-1.036,1.162-2.014,0.712
								c-0.492-0.227-0.812-0.562-1.526-1.282c0,0,0.195,2.004,1.21,4.377c1.377,3.217,1.042,5.136-3.15,4.982
								c-2.627-0.096-4.276-2.181-4.669-9.365c-0.113-2.07-0.285-5.336-0.069-8.049C248.7,177.156,249.104,170.972,249.968,166.662z
								"/>
						</g>
					</g>
					<path id="XMLID_849_" style="fill:#455A64;" d="M266.316,128.427c0,0-4.475-0.154-6.677,3.691
						c-2.314,4.04-3.517,8.367-3.517,8.367c0.804,1.689,5.296,6.116,7.477,6.666c0,0,0.923-1.661,1.922-4.492
						C266.839,138.927,268.901,132.545,266.316,128.427z"/>
				</g>
			</g>
		</g>
		<g id="XMLID_1868_">
			<g id="XMLID_1874_">
				<path id="XMLID_1877_" style="fill:#E0E0E0;" d="M296.296,142.009l-0.059-2.925l-3.477-1.984l0,0l-0.003-0.002v0.001
					c-0.284-0.163-0.676-0.139-1.109,0.111l-48.483,27.991c-0.868,0.501-1.572,1.721-1.572,2.723l0,14.441
					c0,0.491,0.171,0.836,0.445,1.005v0.004l0.015,0.008c0.001,0.001,0.003,0.001,0.004,0.002l3.481,1.986l0.007-3.466
					l46.104-26.571c0.869-0.501,1.573-1.719,1.573-2.722v-10.604H296.296z"/>
				<path id="XMLID_1876_" style="fill:#FAFAFA;" d="M296.236,139.084l-3.477-1.984l0,0l-0.003-0.002v0.001
					c-0.284-0.163-0.676-0.139-1.109,0.111l-48.483,27.991c-0.379,0.219-0.723,0.579-0.995,0.994l4.929,2.846l46.121-26.048
					L296.236,139.084z"/>
				<path id="XMLID_1875_" style="fill:#F0F0F0;" d="M246.638,167.183l48.483-27.991c0.868-0.501,1.573-0.095,1.573,0.908v14.494
					c0,1.003-0.704,2.222-1.573,2.722l-48.481,27.941c-0.869,0.501-1.573,0.094-1.573-0.909l0-14.441
					C245.066,168.904,245.77,167.685,246.638,167.183z"/>
			</g>
			<g id="stars_6_">
				<path id="XMLID_1873_" style="fill:#27DEBF;" d="M251.253,168.532l0.882,1.874c0.056,0.118,0.163,0.16,0.288,0.112l1.972-0.757
					c0.313-0.12,0.438,0.321,0.212,0.746l-1.427,2.679c-0.09,0.169-0.131,0.361-0.11,0.514l0.337,2.425
					c0.053,0.385-0.274,0.891-0.554,0.857l-1.764-0.218c-0.111-0.014-0.244,0.063-0.355,0.205l-1.764,2.255
					c-0.28,0.358-0.608,0.23-0.554-0.217l0.337-2.814c0.021-0.177-0.02-0.322-0.11-0.387l-1.427-1.031
					c-0.227-0.164-0.102-0.749,0.212-0.991l1.972-1.521c0.124-0.096,0.232-0.262,0.288-0.445l0.882-2.892
					C250.708,168.468,251.113,168.235,251.253,168.532z"/>
				<path id="XMLID_1872_" style="fill:#27DEBF;" d="M261.238,162.816l0.882,1.874c0.056,0.118,0.163,0.16,0.288,0.113l1.972-0.757
					c0.313-0.12,0.438,0.321,0.212,0.746l-1.427,2.679c-0.09,0.169-0.131,0.361-0.11,0.514l0.337,2.425
					c0.053,0.385-0.274,0.891-0.554,0.857l-1.764-0.218c-0.111-0.014-0.244,0.063-0.355,0.205l-1.764,2.255
					c-0.28,0.358-0.608,0.23-0.554-0.217l0.337-2.814c0.021-0.178-0.02-0.322-0.11-0.387l-1.427-1.031
					c-0.227-0.164-0.102-0.749,0.212-0.991l1.972-1.521c0.124-0.096,0.232-0.262,0.288-0.445l0.882-2.892
					C260.693,162.752,261.098,162.518,261.238,162.816z"/>
				<path id="XMLID_1871_" style="fill:#27DEBF;" d="M271.222,157.099l0.882,1.874c0.056,0.118,0.163,0.16,0.288,0.113l1.972-0.757
					c0.313-0.12,0.438,0.321,0.212,0.747l-1.427,2.679c-0.09,0.169-0.131,0.361-0.11,0.514l0.337,2.425
					c0.053,0.385-0.274,0.891-0.554,0.857l-1.764-0.218c-0.111-0.014-0.244,0.063-0.355,0.205l-1.764,2.255
					c-0.28,0.358-0.608,0.23-0.554-0.217l0.337-2.814c0.021-0.177-0.02-0.322-0.11-0.387l-1.427-1.031
					c-0.227-0.164-0.102-0.749,0.212-0.991l1.972-1.521c0.124-0.096,0.232-0.262,0.288-0.445l0.882-2.892
					C270.677,157.035,271.082,156.801,271.222,157.099z"/>
				<path id="XMLID_1870_" style="fill:#27DEBF;" d="M281.207,151.383l0.882,1.874c0.056,0.118,0.163,0.16,0.288,0.113l1.972-0.757
					c0.313-0.12,0.438,0.321,0.212,0.746l-1.427,2.679c-0.09,0.169-0.131,0.361-0.11,0.514l0.337,2.425
					c0.054,0.385-0.274,0.891-0.554,0.857l-1.764-0.218c-0.111-0.014-0.244,0.063-0.355,0.205l-1.764,2.255
					c-0.28,0.358-0.608,0.23-0.554-0.217l0.337-2.814c0.021-0.178-0.02-0.322-0.11-0.387l-1.427-1.031
					c-0.227-0.164-0.102-0.749,0.212-0.991l1.972-1.521c0.124-0.096,0.232-0.262,0.288-0.445l0.882-2.892
					C280.661,151.319,281.066,151.085,281.207,151.383z"/>
				<path id="XMLID_1869_" style="fill:#E0E0E0;" d="M291.191,145.666l0.882,1.874c0.056,0.118,0.163,0.16,0.288,0.113l1.972-0.757
					c0.313-0.12,0.438,0.321,0.212,0.746l-1.427,2.679c-0.09,0.169-0.131,0.361-0.11,0.514l0.337,2.425
					c0.054,0.385-0.274,0.891-0.554,0.857l-1.764-0.218c-0.111-0.014-0.244,0.063-0.355,0.205l-1.764,2.255
					c-0.28,0.358-0.608,0.23-0.554-0.217l0.337-2.814c0.021-0.177-0.02-0.322-0.11-0.387l-1.427-1.031
					c-0.227-0.164-0.102-0.749,0.212-0.991l1.972-1.521c0.124-0.096,0.232-0.262,0.288-0.445l0.882-2.892
					C290.646,145.602,291.051,145.368,291.191,145.666z"/>
			</g>
		</g>
	</g>
	<g id="XMLID_985_">
		<g id="XMLID_1388_">
			<g id="XMLID_1340_">
				<path id="XMLID_1387_" style="fill:#E0E0E0;" d="M230.612,211.866l-0.06-2.925l-3.477-1.984l0,0l-0.003-0.002v0.001
					c-0.284-0.163-0.676-0.139-1.109,0.111l-48.483,27.991c-0.868,0.501-1.572,1.721-1.572,2.724l0,61.661
					c0,0.491,0.17,0.836,0.445,1.005v0.004l0.014,0.008c0.001,0.001,0.003,0.001,0.004,0.002l3.481,1.986l0.007-3.466l46.104-26.57
					c0.869-0.501,1.573-1.72,1.573-2.722v-57.823H230.612z"/>
				<path id="XMLID_1378_" style="fill:#FAFAFA;" d="M230.552,208.941l-3.477-1.984l0,0l-0.003-0.002v0.001
					c-0.284-0.163-0.676-0.139-1.109,0.111l-48.483,27.991c-0.379,0.219-0.723,0.579-0.994,0.994l4.929,2.846l46.121-26.048
					L230.552,208.941z"/>
				<path id="XMLID_1345_" style="fill:#F0F0F0;" d="M180.954,237.04l48.483-27.991c0.868-0.501,1.572-0.095,1.572,0.908v61.714
					c0,1.003-0.704,2.222-1.573,2.722l-48.481,27.941c-0.869,0.501-1.573,0.094-1.573-0.909l0-61.661
					C179.382,238.761,180.086,237.542,180.954,237.04z"/>
			</g>
			<g id="XMLID_991_">
				<defs>
					<path id="XMLID_996_" d="M180.954,237.04l48.483-27.991c0.868-0.501,1.572-0.095,1.572,0.908v61.714
						c0,1.003-0.704,2.222-1.573,2.722l-48.482,27.941c-0.869,0.501-1.573,0.094-1.573-0.909l0-61.661
						C179.382,238.761,180.086,237.541,180.954,237.04z"/>
				</defs>
				<clipPath id="XMLID_00000025410204557864323760000007342576290432671923_">
					<use xlink:href="#XMLID_996_"  style="overflow:visible;"/>
				</clipPath>
				<g id="XMLID_1005_" style="clip-path:url(#XMLID_00000025410204557864323760000007342576290432671923_);">
					<path id="XMLID_1234_" style="fill:#FFA8A7;" d="M219.533,298.915c-5.847-25.636-12.878-30.287-6.631-35.626
						c7.27-1.107,10.08,1.176,11.199,8.688c0.547,3.673,1.736,19.043,3.229,24.787c1.312,5.047,3.075,11.298,5.036,14.908
						c0.347,0.64,0.931,1.026,1.612,1.124c1.828,0.263,2.367,1.29,3.855,2.047c1.165,0.593,2.027,0.442,1.971,0.853
						c-0.071,0.528-0.603,1.6-1.842,1.818c-0.623,0.109-1.109,0.024-2.183-0.144c0,0,1.074,1.556,3.184,2.922
						c2.86,1.851,3.332,3.658-1.208,6.076c-2.845,1.515-5.505,0.775-9.031-4.988c-1.016-1.66-2.611-4.286-3.553-6.683
						C222.716,308.454,220.474,303.041,219.533,298.915z"/>
					<path id="XMLID_850_" style="fill:#263238;" d="M212.902,263.289c0,0,3.757-1.133,6.527,0c2.77,1.133,5.002,2.718,5.733,13.568
						l-5.634,3.247L212.902,263.289z"/>
					<g id="XMLID_518_">
						<path id="XMLID_798_" style="fill:#27DEBF;" d="M188.664,266.305L188.664,266.305c5.097,0,9.228-4.132,9.228-9.228v-12.783
							l0,0c-5.097,0-9.228,4.132-9.228,9.228V266.305z"/>
						<path id="XMLID_835_" style="opacity:0.4;" d="M188.664,266.305L188.664,266.305c5.097,0,9.228-4.132,9.228-9.228v-12.783l0,0
							c-5.097,0-9.228,4.132-9.228,9.228V266.305z"/>
					</g>
					<g id="XMLID_1197_">
						<g id="XMLID_1206_">
							<path id="XMLID_1208_" style="fill:#27DEBF;" d="M211.078,259.433c-7.581,2.279-15.214-3.397-15.214-11.313l0,0
								c0-8.401,5.898-16.791,13.173-18.74l0.983-0.264c7.275-1.949,13.173,3.28,13.173,11.681v2.345
								C223.193,250.651,218.269,257.271,211.078,259.433L211.078,259.433z"/>
						</g>
						<path id="XMLID_817_" style="opacity:0.3;" d="M211.078,259.433c-7.581,2.279-15.214-3.397-15.214-11.313l0,0
							c0-8.401,5.898-16.791,13.173-18.74l0.983-0.264c7.275-1.949,13.173,3.28,13.173,11.681v2.345
							C223.193,250.651,218.269,257.271,211.078,259.433L211.078,259.433z"/>
					</g>
					<g id="XMLID_519_">
						<path id="XMLID_1190_" style="fill:#27DEBF;" d="M200.395,232.857c-0.717-0.707-1.929-0.441-2.708,0.596l1.447,1.429
							c-0.311-0.035-0.649,0.018-0.993,0.194c-1.036,0.529-1.698,1.881-1.48,3.018l3.751-1.917
							c-0.018-0.093-0.049-0.175-0.077-0.259C201.049,234.89,201.09,233.544,200.395,232.857z"/>
						<path id="XMLID_833_" style="opacity:0.3;" d="M200.395,232.857c-0.717-0.707-1.929-0.441-2.708,0.596l1.447,1.429
							c-0.311-0.035-0.649,0.018-0.993,0.194c-1.036,0.529-1.698,1.881-1.48,3.018l3.751-1.917
							c-0.018-0.093-0.049-0.175-0.077-0.259C201.049,234.89,201.09,233.544,200.395,232.857z"/>
					</g>
					<g id="XMLID_1183_">
						<g id="XMLID_1187_">
							<path id="XMLID_1188_" style="fill:#37474F;" d="M204.154,265.919c0,0-7.975,1.886-8.938,2.643
								c5.774,6.193,1.052,19.263,1.052,19.263l3.207,11.163c-3.218,5.619-4.865,9.38-6.581,15.057
								c-1.917,6.34-3.136,11.109-4.61,30.204c7.58,6.038,32.828-0.564,39.249-11.999c0,0-1.972-12.521-4.528-24.147
								c-1.866-8.489-3.71-13.081-3.251-16.144c3.383-12.93,3.647-16.152,3.047-18.673c-1.689-7.096-8.354-10.417-9.999-9.976
								L204.154,265.919z"/>
						</g>
					</g>
					<g id="XMLID_1180_">
						<g id="XMLID_1181_">
							<path id="XMLID_1182_" style="fill:#FFA8A7;" d="M218.049,233.791c1.443,0.598,3.227,4.312,3.051,13.146
								c-0.149,7.488-2.24,9.888-3.29,10.699c-1.05,0.811-3.074,1.031-5.042,1.18v4.47c0,0,2.72,2.919,2.549,5.015
								c-0.171,2.095-3.928,3.586-6.473,2.266c-2.545-1.32-4.69-4.648-4.69-4.648l0.044-10.289c0,0-1.158,1.61-3.122,0.153
								c-1.622-1.203-2.168-3.817-0.904-5.636c1.263-1.82,3.599-2.042,4.495-0.17c0,0,1.094-3.801,5.627-6.726
								C214.39,240.606,216.617,238.23,218.049,233.791z"/>
						</g>
					</g>
					<g id="XMLID_520_">
						<path id="XMLID_1176_" style="fill:#263238;" d="M213.899,246.996c0.023,0.53-0.321,1.077-0.768,1.222
							c-0.448,0.145-0.829-0.169-0.853-0.699c-0.023-0.53,0.321-1.077,0.768-1.222C213.494,246.153,213.876,246.466,213.899,246.996
							z"/>
						<path id="XMLID_1173_" style="fill:#F28F8F;" d="M214.115,253.251l1.884,0.189c-0.156,0.664-0.705,1.161-1.225,1.109
							C214.254,254.497,213.959,253.916,214.115,253.251z"/>
						<path id="XMLID_1170_" style="fill:#263238;" d="M220.549,242.339l-1.641-0.874c0.299-0.621,0.91-0.929,1.363-0.688
							C220.724,241.018,220.848,241.717,220.549,242.339z"/>
						<path id="XMLID_1167_" style="fill:#263238;" d="M211.538,245.446l1.641-1.753c-0.299-0.461-0.91-0.442-1.363,0.042
							C211.364,244.22,211.239,244.986,211.538,245.446z"/>
						<path id="XMLID_1113_" style="fill:#263238;" d="M220.171,244.639c0.023,0.53-0.32,1.077-0.768,1.222
							c-0.447,0.144-0.829-0.169-0.852-0.699c-0.024-0.53,0.32-1.077,0.768-1.222C219.766,243.795,220.147,244.108,220.171,244.639z
							"/>
						<polygon id="XMLID_1035_" style="fill:#F28F8F;" points="216.344,245.128 216.473,250.731 219.043,249.123 						"/>
						<path id="XMLID_1026_" style="fill:#F28F8F;" d="M212.768,258.817c-2.074,0.242-6.341-0.031-7.007-1.8
							c0,0,0.222,1.165,1.496,2.085c1.275,0.92,5.51,1.207,5.51,1.207V258.817z"/>
					</g>
					<g id="XMLID_998_">
						<g id="XMLID_999_">
							<path id="XMLID_1000_" style="fill:#FFA8A7;" d="M181.457,308.605c4.94-24.638,8.357-36.268,13.758-40.042
								c2.71,0.276,3.53,3.876,3.816,5.934c0.513,3.694-0.366,8.849-2.764,13.329c0,0-6.73,16.501-7.881,23.052
								c-1.007,5.732-2.146,12.904-2.083,17.6c0.011,0.844,0.297,1.588,0.795,2.077c1.323,1.297,1.327,2.624,2.181,4.22
								c0.668,1.247,1.398,1.585,1.19,1.962c-0.268,0.484-1.113,1.249-2.164,0.764c-0.529-0.244-0.872-0.604-1.64-1.377
								c0,0,0.209,2.153,1.3,4.703c1.479,3.456,1.119,5.518-3.384,5.352c-2.822-0.103-4.593-2.343-5.016-10.061
								c-0.122-2.223-0.306-5.733-0.075-8.648C180.095,319.88,180.529,313.236,181.457,308.605z"/>
						</g>
					</g>
					<path id="XMLID_838_" style="fill:#263238;" d="M196.118,268.181c-2.21,0.766-4.359,2.951-6.404,7.69
						c-2.045,4.74-4.487,14.57-4.487,14.57s4.341,4.58,9.133,3.207c0,0,3.721-7.734,4.663-11.787
						C199.966,277.808,200.686,270.52,196.118,268.181z"/>
				</g>
			</g>
		</g>
		<g id="XMLID_1613_">
			<g id="XMLID_1629_">
				<path id="XMLID_1640_" style="fill:#E0E0E0;" d="M230.612,285.116l-0.06-2.925l-3.477-1.984l0,0l-0.003-0.001v0
					c-0.284-0.163-0.676-0.139-1.109,0.111l-48.483,27.991c-0.868,0.501-1.572,1.721-1.572,2.724l0,14.441
					c0,0.491,0.17,0.836,0.445,1.005v0.004l0.014,0.008c0.001,0.001,0.003,0.001,0.004,0.002l3.481,1.986l0.007-3.466l46.104-26.57
					c0.869-0.501,1.573-1.72,1.573-2.722v-10.604H230.612z"/>
				<path id="XMLID_1637_" style="fill:#FAFAFA;" d="M230.552,282.191l-3.477-1.984l0,0l-0.003-0.001v0
					c-0.284-0.163-0.676-0.139-1.109,0.111l-48.483,27.991c-0.379,0.219-0.723,0.579-0.994,0.994l4.929,2.846l46.121-26.048
					L230.552,282.191z"/>
				<path id="XMLID_1633_" style="fill:#F0F0F0;" d="M180.954,310.291l48.483-27.991c0.868-0.501,1.572-0.095,1.572,0.908v14.494
					c0,1.003-0.704,2.222-1.573,2.722l-48.481,27.941c-0.869,0.501-1.573,0.094-1.573-0.909l0-14.441
					C179.382,312.012,180.086,310.792,180.954,310.291z"/>
			</g>
			<g id="stars_2_">
				<path id="XMLID_1625_" style="fill:#27DEBF;" d="M185.57,311.64l0.882,1.874c0.056,0.118,0.163,0.16,0.288,0.113l1.972-0.757
					c0.313-0.12,0.438,0.321,0.212,0.747l-1.427,2.679c-0.09,0.169-0.131,0.361-0.11,0.514l0.337,2.425
					c0.053,0.385-0.274,0.891-0.554,0.857l-1.764-0.218c-0.111-0.014-0.244,0.063-0.355,0.205l-1.764,2.255
					c-0.28,0.358-0.608,0.23-0.554-0.217l0.337-2.814c0.021-0.177-0.02-0.322-0.11-0.387l-1.427-1.031
					c-0.227-0.164-0.102-0.749,0.212-0.991l1.972-1.521c0.124-0.096,0.232-0.262,0.287-0.445l0.882-2.892
					C185.025,311.576,185.43,311.342,185.57,311.64z"/>
				<path id="XMLID_1622_" style="fill:#27DEBF;" d="M195.554,305.923l0.882,1.874c0.056,0.118,0.163,0.16,0.287,0.113l1.972-0.757
					c0.313-0.12,0.438,0.321,0.212,0.746l-1.427,2.679c-0.09,0.169-0.131,0.361-0.11,0.514l0.337,2.425
					c0.054,0.385-0.274,0.892-0.554,0.857l-1.764-0.218c-0.111-0.014-0.244,0.063-0.355,0.205l-1.764,2.255
					c-0.28,0.358-0.608,0.23-0.554-0.217l0.337-2.814c0.021-0.177-0.02-0.322-0.11-0.387l-1.427-1.031
					c-0.227-0.164-0.102-0.749,0.212-0.991l1.972-1.521c0.124-0.096,0.232-0.262,0.288-0.444l0.882-2.892
					C195.009,305.859,195.414,305.626,195.554,305.923z"/>
				<path id="XMLID_1619_" style="fill:#27DEBF;" d="M205.538,300.207l0.882,1.874c0.056,0.118,0.163,0.16,0.288,0.113l1.972-0.757
					c0.313-0.12,0.438,0.321,0.212,0.746l-1.427,2.679c-0.09,0.169-0.131,0.361-0.11,0.514l0.337,2.425
					c0.054,0.385-0.274,0.891-0.554,0.857l-1.764-0.218c-0.111-0.014-0.244,0.063-0.355,0.205l-1.764,2.255
					c-0.28,0.358-0.608,0.23-0.554-0.217l0.337-2.814c0.021-0.177-0.02-0.322-0.11-0.387l-1.427-1.031
					c-0.227-0.164-0.102-0.749,0.212-0.991l1.972-1.521c0.124-0.096,0.232-0.262,0.288-0.445l0.882-2.892
					C204.993,300.143,205.398,299.909,205.538,300.207z"/>
				<path id="XMLID_1617_" style="fill:#27DEBF;" d="M215.523,294.49l0.882,1.874c0.056,0.118,0.163,0.16,0.288,0.113l1.972-0.757
					c0.313-0.12,0.438,0.321,0.212,0.746l-1.427,2.679c-0.09,0.169-0.131,0.361-0.11,0.514l0.337,2.425
					c0.053,0.385-0.274,0.891-0.554,0.857l-1.764-0.218c-0.111-0.014-0.244,0.063-0.355,0.205l-1.764,2.255
					c-0.28,0.358-0.608,0.23-0.554-0.217l0.337-2.814c0.021-0.177-0.02-0.322-0.11-0.387l-1.427-1.031
					c-0.227-0.164-0.102-0.749,0.212-0.991l1.972-1.521c0.124-0.096,0.232-0.262,0.288-0.445l0.882-2.892
					C214.978,294.426,215.383,294.193,215.523,294.49z"/>
				<path id="XMLID_1653_" style="fill:#E0E0E0;" d="M215.358,302.723l1.764,0.218c0.28,0.035,0.608-0.472,0.554-0.857l-0.337-2.425
					c-0.021-0.153,0.02-0.345,0.11-0.514l1.427-2.679c0.227-0.425,0.102-0.867-0.212-0.746l-1.972,0.757
					c-0.124,0.048-0.232,0.006-0.288-0.113l-0.882-1.874c-0.07-0.149-0.206-0.165-0.343-0.086v8.363
					C215.241,302.732,215.302,302.716,215.358,302.723z"/>
				<path id="XMLID_1615_" style="fill:#E0E0E0;" d="M225.507,288.774l0.882,1.874c0.056,0.118,0.163,0.16,0.288,0.113l1.972-0.757
					c0.313-0.12,0.438,0.321,0.212,0.746l-1.427,2.679c-0.09,0.169-0.131,0.361-0.11,0.514l0.337,2.425
					c0.053,0.385-0.274,0.892-0.554,0.857l-1.764-0.218c-0.111-0.014-0.244,0.063-0.355,0.205l-1.764,2.255
					c-0.28,0.358-0.608,0.23-0.554-0.217l0.337-2.814c0.021-0.177-0.02-0.322-0.11-0.387l-1.427-1.031
					c-0.227-0.164-0.102-0.749,0.212-0.991l1.972-1.521c0.124-0.096,0.232-0.262,0.288-0.445l0.882-2.892
					C224.962,288.71,225.367,288.476,225.507,288.774z"/>
			</g>
		</g>
	</g>
	<g id="XMLID_973_">
		<g id="XMLID_1672_">
			<g id="XMLID_1811_">
				<path id="XMLID_1854_" style="fill:#E0E0E0;" d="M230.612,106.639l-0.06-2.925l-3.477-1.984l0,0l-0.003-0.002v0.001
					c-0.284-0.163-0.676-0.139-1.109,0.111l-48.483,27.991c-0.868,0.501-1.572,1.721-1.572,2.723l0,61.661
					c0,0.491,0.17,0.836,0.445,1.005v0.004l0.014,0.008c0.001,0.001,0.003,0.002,0.004,0.002l3.481,1.986l0.007-3.466l46.104-26.57
					c0.869-0.501,1.573-1.719,1.573-2.722v-57.823H230.612z"/>
				<path id="XMLID_1813_" style="fill:#FAFAFA;" d="M230.552,103.714l-3.477-1.984l0,0l-0.003-0.002v0.001
					c-0.284-0.163-0.676-0.139-1.109,0.111l-48.483,27.991c-0.379,0.219-0.723,0.579-0.994,0.994l4.929,2.846l46.121-26.049
					L230.552,103.714z"/>
				<path id="XMLID_1812_" style="fill:#F0F0F0;" d="M180.954,131.814l48.483-27.991c0.868-0.501,1.572-0.095,1.572,0.908v61.714
					c0,1.003-0.704,2.222-1.573,2.722l-48.481,27.941c-0.869,0.501-1.573,0.094-1.573-0.909l0-61.661
					C179.382,133.534,180.086,132.315,180.954,131.814z"/>
			</g>
			<g id="XMLID_1654_">
				<defs>
					<path id="XMLID_2451_" d="M180.954,131.813l48.483-27.991c0.868-0.501,1.572-0.095,1.572,0.908v61.714
						c0,1.003-0.704,2.222-1.573,2.722l-48.482,27.941c-0.869,0.501-1.573,0.094-1.573-0.909l0-61.661
						C179.382,133.534,180.086,132.315,180.954,131.813z"/>
				</defs>
				<clipPath id="XMLID_00000176016975943057188640000007628068349065435267_">
					<use xlink:href="#XMLID_2451_"  style="overflow:visible;"/>
				</clipPath>
				<g id="XMLID_2452_" style="clip-path:url(#XMLID_00000176016975943057188640000007628068349065435267_);">
					<g id="XMLID_2456_">
						<g id="Character_boy_9_">
							<path id="XMLID_2504_" style="fill:#FFA8A7;" d="M214.833,157.891c0,0,3.81-1.178,6.984,3.828
								c2.158,3.403,9.696,16.33,9.696,16.33s14.669-7.778,15.495-8.794c0.826-1.016,0.776-3.085,0.899-4.194
								c0.205-1.857-0.474-3.453-0.571-4.123c-0.169-1.169,1.508-1.231,2.338,0.387c0.607,1.182,0.654,2.533,1.175,2.55
								c0.178,0.006,1.821-1.495,2.06-1.756c0.909-0.993,2.551-2.66,3.795-2.428c0.411,0.076,0.731,0.422,0.829,0.893
								c0.154,0.744,0.094,1.363,0.466,1.983c0.158,0.263,0.402,0.47,0.491,0.797c0.117,0.428-0.053,0.839-0.015,1.286
								c0.052,0.614,0.646,0.872,0.732,1.472c0.063,0.434-0.158,0.935-0.155,1.391c0.002,0.294,0.096,0.554,0.094,0.849
								c-0.003,0.578-0.369,1.162-0.755,1.632c-1.359,1.654-2.746,2.597-4.354,3.647c-1.337,0.873-3.102,1.65-4.613,2.472
								c-1.512,0.822-18.801,14.086-21.102,12.518c-2.301-1.568-13.839-18.377-13.839-18.377
								C211.839,162.834,214.833,157.891,214.833,157.891z"/>
							<g id="XMLID_2501_">
								<path id="XMLID_2502_" style="fill:#27DEBF;" d="M208.141,158.004c0,0,4.199-1.703,6.923-1.53
									c2.725,0.174,4.742,0.952,6.74,4.164c2.668,4.289,7.083,11.695,7.083,11.695s-2.545,5.861-8.579,9.178l-8.135-12.275
									L208.141,158.004z"/>
							</g>
							<g id="XMLID_1275_" style="opacity:0.25;">
								<path id="XMLID_1767_" d="M208.141,158.004c0,0,4.199-1.703,6.923-1.53c2.725,0.174,4.742,0.952,6.74,4.164
									c2.668,4.289,7.083,11.695,7.083,11.695s-2.545,5.861-8.579,9.178l-8.135-12.275L208.141,158.004z"/>
							</g>
							<g id="Character_boy_10_">
								<g id="XMLID_2458_">
									<path id="XMLID_2500_" style="fill:#455A64;" d="M194.814,165.423c-1.356,1.063-2.427,2.626-2.971,4.368
										c-0.485,1.551-0.903,3.678-0.903,6.396v13.951l-0.177,26.391c8.851,3.015,20.103,0.361,29.545-10.132
										c0,0-0.527-33.767-0.527-39.314c0-0.251-0.005-0.503-0.017-0.757c-0.343-7.83-7.098-11.457-13.751-7.698l-5.588,3.157
										L194.814,165.423L194.814,165.423z"/>
									<g id="XMLID_2466_">
										<g id="XMLID_2489_">
											<path id="XMLID_2496_" style="fill:#263238;" d="M200.872,136.717c0,5.951,4.178,9.655,9.331,8.274
												c5.153-1.381,9.331-7.324,9.331-13.275c0-5.951-4.449-5.953-9.602-4.572
												C204.779,128.525,200.872,130.766,200.872,136.717z"/>
											<path id="XMLID_2495_" style="fill:#263238;" d="M196.001,146.135c0,0,1.375,7.09,1.926,8.167
												c0.551,1.078,1.691,1.121,1.691,1.121l-0.096-5.221L196.001,146.135z"/>
											<path id="XMLID_2494_" style="fill:#263238;" d="M197.727,134.988c0,0-1.481,0.104-2.635,1.776
												c-1.132,1.639-0.5,5.652,0.91,9.371l2.59-0.351L197.727,134.988z"/>
											<path id="XMLID_2493_" style="fill:#FFBDA7;" d="M199.367,145.578c-0.519,0.497-1.26-0.456-1.9-1.058
												c-0.64-0.602-2.731-1.099-3.774,1.718c-1.063,2.87,0.921,5.756,2.566,5.911c2.836,0.268,3.262-1.947,3.262-1.947
												l0.096,12.106c4.758,5.046,13.097-0.902,9.348-3.136l-0.008-3.593c0,0,2.57-0.238,3.824-0.798
												c2.086-0.931,3.398-3.183,4.031-5.96c1.016-4.46,1.402-7.944,0.54-15.949c-0.945-8.773-10.037-6.431-14.947-1.547
												C197.495,136.21,199.367,145.578,199.367,145.578z"/>
											<path id="XMLID_2492_" style="fill:#263238;" d="M199.368,146.587c-0.261,0.076-1.254-1.561-1.9-2.067
												c-0.896-0.701,0.26-9.532,0.26-9.532c-1.036-2.273,0.873-5.715,2.871-7.114c1.495-1.047,3.14-1.444,4.732-1.738
												c1.432-0.265,2.86-0.463,4.28-0.595c1.724-0.16,3.443-0.222,5.186-0.618c1.389-0.315,2.811-0.859,4.106-1.764
												c0.418-0.292,0.842,0.029,0.705,0.556c-0.112,0.43-0.268,0.908-0.486,1.354c-0.438,0.898-0.769,1.644-1.38,2.43
												c-0.621,0.8-1.296,1.545-2.011,2.221c-3.838,3.635-8.689,4.626-12.961,5.096c-0.963,0.106-1.169,1.239-1.689,4.324
												C200.624,141.848,200.245,146.332,199.368,146.587z"/>
											<path id="XMLID_2491_" style="fill:#263238;" d="M197.732,135.649l-3.14-1.105c0.446-1.158,1.51-1.85,2.377-1.545
												C197.836,133.305,198.177,134.491,197.732,135.649z"/>
											<path id="XMLID_2490_" style="fill:#F29077;" d="M208.958,155.579c0,0-4.656,0.165-6.284-0.399
												c-1.09-0.377-1.987-1.295-2.25-1.968c0,0,0.305,1.514,1.278,2.69c1.191,1.438,7.256,1.107,7.256,1.107L208.958,155.579z"
												/>
										</g>
										<g id="XMLID_2468_">
											<path id="XMLID_2488_" style="fill:#263238;" d="M207.839,141.964c0,0.618-0.418,1.23-0.933,1.367
												c-0.516,0.137-0.933-0.254-0.933-0.872c0-0.618,0.418-1.23,0.933-1.367C207.421,140.955,207.839,141.346,207.839,141.964
												z"/>
											<path id="XMLID_2487_" style="fill:#263238;" d="M206.341,137.905l-1.996,1.807c-0.294-0.583-0.086-1.461,0.465-1.96
												C205.361,137.253,206.046,137.322,206.341,137.905z"/>
											<path id="XMLID_2479_" style="fill:#F29077;" d="M208.536,149.22l2.13,0.352c-0.211,0.761-0.858,1.3-1.447,1.203
												C208.632,150.678,208.326,149.981,208.536,149.22z"/>
											<path id="XMLID_2474_" style="fill:#263238;" d="M216.399,136.158l-1.82-1.131c0.371-0.701,1.08-1.016,1.582-0.704
												C216.663,134.635,216.77,135.457,216.399,136.158z"/>
											<path id="XMLID_2473_" style="fill:#263238;" d="M215.599,139.578c0,0.618-0.418,1.23-0.933,1.366
												c-0.515,0.136-0.933-0.254-0.933-0.872c0-0.618,0.418-1.23,0.933-1.367C215.182,138.569,215.599,138.96,215.599,139.578z
												"/>
											<polygon id="XMLID_2472_" style="fill:#F29077;" points="210.988,139.949 211.096,146.453 214.441,144.706 											
												"/>
										</g>
									</g>
								</g>
							</g>
						</g>
					</g>
					<g id="XMLID_2454_">
						<path id="XMLID_2455_" style="fill:#FFBDA7;" d="M181.649,205.33c1.959-26.889,5.942-36.526,12.491-39.357
							c2.263,1.685,2.808,9.589,0.442,15.593c0,0-5.087,17.925-5.375,24.018c-0.253,5.353,0.38,12.743,1.041,16.952
							c0.117,0.746,0.495,1.335,1.029,1.682c1.435,0.932,1.342,2.287,2.367,3.569c0.802,1.004,1.551,1.178,1.397,1.554
							c-0.198,0.483-0.919,1.319-1.995,1.07c-0.542-0.126-0.919-0.389-1.758-0.949c0,0,0.473,1.899,1.848,3.999
							c1.864,2.846,1.775,4.764-2.598,5.41c-2.74,0.405-4.734-1.295-6.113-8.161c-0.397-1.978-1.332-5.537-1.72-8.1
							C181.588,215.247,181.334,209.658,181.649,205.33z"/>
					</g>
					<path id="XMLID_2453_" style="fill:#27DEBF;" d="M196.001,164.653c0,0-4.772,1.67-7.181,5.576
						c-2.409,3.906-4.708,10.196-6.321,21.357c0,0,3.019,4.127,10.895,0.697c0,0,3.427-14.242,3.732-19.871
						C197.46,166.273,196.001,164.653,196.001,164.653z"/>
					<path id="XMLID_1246_" style="opacity:0.15;" d="M196.001,164.653c0,0-4.772,1.67-7.181,5.576
						c-2.409,3.906-4.708,10.196-6.321,21.357c0,0,3.019,4.127,10.895,0.697c0,0,3.427-14.242,3.732-19.871
						C197.46,166.273,196.001,164.653,196.001,164.653z"/>
				</g>
			</g>
		</g>
		<g id="XMLID_1655_">
			<g id="XMLID_1663_">
				<path id="XMLID_1670_" style="fill:#E0E0E0;" d="M230.612,179.89l-0.06-2.925l-3.477-1.984l0,0l-0.003-0.002v0.001
					c-0.284-0.163-0.676-0.139-1.109,0.111l-48.483,27.991c-0.868,0.501-1.572,1.721-1.572,2.724l0,14.441
					c0,0.491,0.17,0.836,0.445,1.005v0.004l0.014,0.008c0.001,0.001,0.003,0.001,0.004,0.002l3.481,1.986l0.007-3.466l46.104-26.57
					c0.869-0.501,1.573-1.719,1.573-2.722V179.89H230.612z"/>
				<path id="XMLID_1669_" style="fill:#FAFAFA;" d="M230.552,176.965l-3.477-1.984l0,0l-0.003-0.002v0.001
					c-0.284-0.163-0.676-0.139-1.109,0.111l-48.483,27.991c-0.379,0.219-0.723,0.579-0.994,0.994l4.929,2.846l46.121-26.048
					L230.552,176.965z"/>
				<path id="XMLID_1664_" style="fill:#F0F0F0;" d="M180.954,205.064l48.483-27.991c0.868-0.501,1.572-0.095,1.572,0.908v14.494
					c0,1.003-0.704,2.222-1.573,2.722l-48.481,27.941c-0.869,0.501-1.573,0.094-1.573-0.909l0-14.441
					C179.382,206.785,180.086,205.566,180.954,205.064z"/>
			</g>
			<g id="stars_3_">
				<path id="XMLID_1662_" style="fill:#27DEBF;" d="M185.57,206.413l0.882,1.874c0.056,0.118,0.163,0.16,0.288,0.113l1.972-0.757
					c0.313-0.12,0.438,0.321,0.212,0.747l-1.427,2.679c-0.09,0.169-0.131,0.361-0.11,0.514l0.337,2.425
					c0.053,0.385-0.274,0.891-0.554,0.857l-1.764-0.218c-0.111-0.014-0.244,0.063-0.355,0.205l-1.764,2.255
					c-0.28,0.358-0.608,0.23-0.554-0.217l0.337-2.814c0.021-0.178-0.02-0.322-0.11-0.387l-1.427-1.031
					c-0.227-0.164-0.102-0.749,0.212-0.991l1.972-1.521c0.124-0.096,0.232-0.262,0.287-0.445l0.882-2.892
					C185.025,206.349,185.43,206.115,185.57,206.413z"/>
				<path id="XMLID_1661_" style="fill:#27DEBF;" d="M195.554,200.697l0.882,1.874c0.056,0.118,0.163,0.16,0.287,0.113l1.972-0.757
					c0.313-0.12,0.438,0.321,0.212,0.746l-1.427,2.679c-0.09,0.169-0.131,0.361-0.11,0.514l0.337,2.425
					c0.054,0.385-0.274,0.891-0.554,0.857l-1.764-0.218c-0.111-0.014-0.244,0.063-0.355,0.205l-1.764,2.255
					c-0.28,0.358-0.608,0.23-0.554-0.217l0.337-2.814c0.021-0.177-0.02-0.322-0.11-0.387l-1.427-1.031
					c-0.227-0.164-0.102-0.749,0.212-0.991l1.972-1.521c0.124-0.096,0.232-0.262,0.288-0.444l0.882-2.892
					C195.009,200.633,195.414,200.399,195.554,200.697z"/>
				<path id="XMLID_1660_" style="fill:#27DEBF;" d="M205.538,194.98l0.882,1.874c0.056,0.118,0.163,0.16,0.288,0.113l1.972-0.757
					c0.313-0.12,0.438,0.321,0.212,0.746l-1.427,2.679c-0.09,0.169-0.131,0.361-0.11,0.514l0.337,2.425
					c0.054,0.385-0.274,0.891-0.554,0.857l-1.764-0.218c-0.111-0.014-0.244,0.063-0.355,0.205l-1.764,2.255
					c-0.28,0.358-0.608,0.23-0.554-0.217l0.337-2.814c0.021-0.177-0.02-0.322-0.11-0.387l-1.427-1.031
					c-0.227-0.164-0.102-0.749,0.212-0.991l1.972-1.521c0.124-0.096,0.232-0.262,0.288-0.445l0.882-2.892
					C204.993,194.916,205.398,194.682,205.538,194.98z"/>
				<path id="XMLID_1658_" style="fill:#E0E0E0;" d="M215.523,189.264l0.882,1.874c0.056,0.118,0.163,0.16,0.288,0.113l1.972-0.757
					c0.313-0.12,0.438,0.321,0.212,0.746l-1.427,2.679c-0.09,0.169-0.131,0.361-0.11,0.514l0.337,2.425
					c0.053,0.385-0.274,0.891-0.554,0.857l-1.764-0.218c-0.111-0.014-0.244,0.063-0.355,0.205l-1.764,2.255
					c-0.28,0.358-0.608,0.23-0.554-0.217l0.337-2.814c0.021-0.178-0.02-0.322-0.11-0.387l-1.427-1.031
					c-0.227-0.164-0.102-0.749,0.212-0.991l1.972-1.521c0.124-0.096,0.232-0.262,0.288-0.445l0.882-2.892
					C214.978,189.2,215.383,188.966,215.523,189.264z"/>
				<path id="XMLID_1656_" style="fill:#E0E0E0;" d="M225.507,183.547l0.882,1.874c0.056,0.118,0.163,0.16,0.288,0.113l1.972-0.757
					c0.313-0.12,0.438,0.321,0.212,0.746l-1.427,2.679c-0.09,0.169-0.131,0.361-0.11,0.514l0.337,2.425
					c0.053,0.385-0.274,0.891-0.554,0.857l-1.764-0.218c-0.111-0.014-0.244,0.063-0.355,0.205l-1.764,2.255
					c-0.28,0.358-0.608,0.23-0.554-0.217l0.337-2.814c0.021-0.177-0.02-0.322-0.11-0.387l-1.427-1.031
					c-0.227-0.164-0.102-0.749,0.212-0.991l1.972-1.521c0.124-0.096,0.232-0.262,0.288-0.445l0.882-2.892
					C224.962,183.483,225.367,183.249,225.507,183.547z"/>
			</g>
		</g>
	</g>
	<g id="XMLID_990_">
		<g id="XMLID_1643_">
			<g id="XMLID_989_">
				<path id="XMLID_1242_" style="fill:#E0E0E0;" d="M164.868,249.823l-0.06-2.925l-3.477-1.983l0,0l-0.003-0.002v0.001
					c-0.284-0.163-0.676-0.139-1.109,0.111l-48.483,27.991c-0.868,0.501-1.572,1.721-1.572,2.723l0,61.661
					c0,0.491,0.171,0.836,0.445,1.005v0.004l0.015,0.008c0.001,0.001,0.003,0.002,0.004,0.002l3.481,1.986l0.007-3.466l46.104-26.57
					c0.869-0.501,1.573-1.719,1.573-2.722v-57.824H164.868z"/>
				<path id="XMLID_1241_" style="fill:#FAFAFA;" d="M164.808,246.898l-3.477-1.983l0,0l-0.003-0.002v0.001
					c-0.284-0.163-0.676-0.139-1.109,0.111l-48.483,27.991c-0.379,0.219-0.723,0.579-0.994,0.994l4.929,2.846l46.121-26.049
					L164.808,246.898z"/>
				<path id="XMLID_1239_" style="fill:#F0F0F0;" d="M115.21,274.998l48.483-27.991c0.868-0.501,1.572-0.095,1.572,0.908v61.714
					c0,1.003-0.704,2.222-1.573,2.722l-48.481,27.941c-0.869,0.501-1.573,0.094-1.573-0.909l0-61.661
					C113.638,276.719,114.342,275.499,115.21,274.998z"/>
			</g>
			<g id="XMLID_1814_">
				<defs>
					<path id="XMLID_1815_" d="M115.21,274.997l48.483-27.991c0.868-0.501,1.572-0.095,1.572,0.908v61.714
						c0,1.003-0.704,2.222-1.573,2.722l-48.482,27.941c-0.869,0.501-1.573,0.094-1.573-0.909l0-61.661
						C113.638,276.718,114.342,275.499,115.21,274.997z"/>
				</defs>
				<clipPath id="XMLID_00000050636577672962502860000003135073407764395948_">
					<use xlink:href="#XMLID_1815_"  style="overflow:visible;"/>
				</clipPath>
				<g id="XMLID_1816_" style="clip-path:url(#XMLID_00000050636577672962502860000003135073407764395948_);">
					<path id="XMLID_1853_" style="fill:#FFA8A7;" d="M149.089,301.075c0,0,3.809-1.178,6.984,3.828
						c2.158,3.403,9.696,16.33,9.696,16.33s14.669-7.778,15.495-8.794c0.826-1.016,0.776-3.085,0.899-4.194
						c0.205-1.857-0.474-3.453-0.571-4.123c-0.169-1.169,1.508-1.231,2.338,0.387c0.607,1.182,0.654,2.533,1.175,2.55
						c0.178,0.006,1.821-1.495,2.06-1.756c0.909-0.994,2.551-2.66,3.795-2.428c0.411,0.076,0.731,0.422,0.829,0.893
						c0.154,0.743,0.094,1.363,0.466,1.983c0.158,0.263,0.402,0.47,0.491,0.797c0.117,0.428-0.053,0.839-0.015,1.286
						c0.052,0.614,0.646,0.872,0.732,1.471c0.063,0.434-0.158,0.935-0.155,1.391c0.002,0.294,0.096,0.554,0.094,0.849
						c-0.003,0.578-0.369,1.162-0.755,1.632c-1.359,1.654-2.746,2.597-4.354,3.647c-1.337,0.873-3.102,1.65-4.613,2.472
						c-1.512,0.822-18.801,14.086-21.102,12.518c-2.301-1.568-13.839-18.377-13.839-18.377
						C146.095,306.018,149.089,301.075,149.089,301.075z"/>
					<g id="XMLID_1851_">
						<path id="XMLID_1852_" style="fill:#455A64;" d="M142.397,301.188c0,0,4.199-1.703,6.923-1.53
							c2.725,0.174,4.742,0.952,6.74,4.164c2.668,4.289,7.083,11.695,7.083,11.695s-2.545,5.861-8.579,9.178l-8.135-12.275
							L142.397,301.188z"/>
					</g>
					<path id="XMLID_1849_" style="fill:#27DEBF;" d="M129.07,308.607c-1.356,1.063-2.427,2.626-2.971,4.367
						c-0.485,1.552-0.903,3.678-0.903,6.396v13.951l-0.177,26.391c8.851,3.015,20.103,0.361,29.545-10.132
						c0,0-0.527-33.767-0.527-39.314c0-0.251-0.005-0.503-0.017-0.757c-0.343-7.831-7.098-11.457-13.751-7.698l-5.588,3.157
						L129.07,308.607L129.07,308.607z"/>
					<path id="XMLID_1771_" style="opacity:0.6;fill:#FFFFFF;" d="M129.07,308.607c-1.356,1.063-2.427,2.626-2.971,4.367
						c-0.485,1.552-0.903,3.678-0.903,6.396v13.951l-0.177,26.391c8.851,3.015,20.103,0.361,29.545-10.132
						c0,0-0.527-33.767-0.527-39.314c0-0.251-0.005-0.503-0.017-0.757c-0.343-7.831-7.098-11.457-13.751-7.698l-5.588,3.157
						L129.07,308.607L129.07,308.607z"/>
					<g id="XMLID_1832_">
						<g id="XMLID_1841_">
							<path id="XMLID_1848_" style="fill:#263238;" d="M135.129,279.901c0,5.951,4.178,9.655,9.331,8.274
								c5.153-1.381,9.331-7.324,9.331-13.275c0-5.951-4.449-5.953-9.602-4.572C139.035,271.71,135.129,273.95,135.129,279.901z"/>
							<path id="XMLID_1847_" style="fill:#263238;" d="M130.258,289.319c0,0,1.375,7.09,1.926,8.168
								c0.551,1.078,1.691,1.121,1.691,1.121l-0.096-5.221L130.258,289.319z"/>
							<path id="XMLID_1846_" style="fill:#263238;" d="M131.983,278.172c0,0-1.481,0.104-2.635,1.776
								c-1.132,1.639-0.5,5.652,0.91,9.371l2.59-0.35L131.983,278.172z"/>
							<path id="XMLID_1845_" style="fill:#FFBDA7;" d="M133.624,288.762c-0.519,0.497-1.26-0.456-1.9-1.058
								c-0.64-0.602-2.731-1.099-3.774,1.717c-1.063,2.871,0.921,5.756,2.566,5.911c2.836,0.268,3.262-1.947,3.262-1.947
								l0.096,12.106c4.758,5.046,13.097-0.902,9.348-3.136l-0.008-3.593c0,0,2.57-0.238,3.823-0.798
								c2.086-0.931,3.398-3.183,4.031-5.96c1.016-4.46,1.402-7.944,0.54-15.949c-0.945-8.773-10.037-6.431-14.947-1.547
								C131.751,279.394,133.624,288.762,133.624,288.762z"/>
							<path id="XMLID_1844_" style="fill:#263238;" d="M133.624,289.771c-0.261,0.076-1.254-1.561-1.9-2.067
								c-0.335-0.262-0.305-1.022-0.324-1.392c-0.097-1.859,0.107-3.75,0.294-5.598c0.119-1.174,0.313-2.226,0.096-3.391
								c-0.226-1.213-0.197-2.481,0.146-3.67c0.418-1.448,1.314-2.771,2.561-3.618c1.562-1.062,3.65-1.272,5.446-0.769
								c0.011-0.884,0.561-1.71,1.31-2.18c0.749-0.47,1.67-0.613,2.551-0.535c0.926,0.082,1.947,0.512,2.221,1.4
								c0.557-1.381,1.868-2.43,3.338-2.669c1.254-0.204,2.834,0.19,3.714,1.158c0.824,0.907,0.966,2.62,0.935,3.784
								c-0.014,0.547-0.068,1.096-0.219,1.622c-0.336,1.167-1.16,2.176-2.211,2.785c-1.051,0.609-2.315,0.823-3.518,0.648
								c0.26,0.038-0.493,1.904-0.589,2.064c-0.394,0.662-1.011,1.199-1.739,1.461c-1.389,0.5-3.042,0.026-4.044-1.058
								c-0.141,0.879-1.099,1.41-1.987,1.469c-0.888,0.059-1.762-0.215-2.648-0.297c-1.687-0.155-1.523,2.229-1.721,3.405
								C134.88,285.033,134.502,289.517,133.624,289.771z"/>
							<path id="XMLID_1843_" style="fill:#263238;" d="M131.988,278.833l-3.14-1.105c0.446-1.158,1.51-1.85,2.377-1.545
								S132.434,277.675,131.988,278.833z"/>
							<path id="XMLID_1842_" style="fill:#F29077;" d="M143.214,298.763c0,0-4.656,0.164-6.284-0.399
								c-1.089-0.377-1.987-1.295-2.25-1.968c0,0,0.305,1.513,1.278,2.69c1.191,1.438,7.256,1.107,7.256,1.107V298.763z"/>
						</g>
						<g id="XMLID_1833_">
							<path id="XMLID_1840_" style="fill:#263238;" d="M142.095,285.578c0,0.618-0.418,1.23-0.933,1.366
								c-0.516,0.137-0.933-0.254-0.933-0.872c0-0.618,0.418-1.23,0.933-1.366C141.678,284.57,142.095,284.96,142.095,285.578z"/>
							<path id="XMLID_1839_" style="fill:#263238;" d="M140.597,281.519l-1.996,1.807c-0.294-0.583-0.086-1.461,0.465-1.96
								C139.617,280.867,140.303,280.936,140.597,281.519z"/>
							<path id="XMLID_1838_" style="fill:#F29077;" d="M142.793,292.404l2.13,0.352c-0.211,0.761-0.859,1.3-1.447,1.203
								C142.888,293.862,142.582,293.165,142.793,292.404z"/>
							<path id="XMLID_1837_" style="fill:#263238;" d="M150.655,279.772l-1.82-1.131c0.371-0.701,1.08-1.017,1.582-0.704
								C150.92,278.249,151.026,279.071,150.655,279.772z"/>
							<path id="XMLID_1836_" style="fill:#263238;" d="M150.258,283.079c0,0.618-0.418,1.23-0.933,1.366
								c-0.515,0.136-0.933-0.254-0.933-0.872c0-0.618,0.418-1.23,0.933-1.366C149.84,282.07,150.258,282.461,150.258,283.079z"/>
							<polygon id="XMLID_1834_" style="fill:#F29077;" points="145.244,283.133 145.353,289.637 148.697,287.891 							"/>
						</g>
					</g>
					<g id="XMLID_1818_">
						<path id="XMLID_1819_" style="fill:#FFBDA7;" d="M115.905,348.514c1.959-26.889,5.942-36.526,12.491-39.357
							c2.263,1.685,2.808,9.589,0.442,15.593c0,0-5.087,17.925-5.375,24.018c-0.253,5.353,0.381,12.743,1.041,16.952
							c0.117,0.746,0.495,1.335,1.029,1.682c1.435,0.931,1.342,2.287,2.367,3.569c0.802,1.004,1.551,1.178,1.397,1.554
							c-0.198,0.483-0.919,1.319-1.995,1.069c-0.542-0.126-0.919-0.389-1.758-0.949c0,0,0.473,1.899,1.848,3.999
							c1.864,2.846,1.775,4.764-2.598,5.41c-2.74,0.405-4.734-1.295-6.113-8.161c-0.397-1.978-1.332-5.537-1.72-8.1
							C115.845,358.432,115.59,352.842,115.905,348.514z"/>
					</g>
					<path id="XMLID_1817_" style="fill:#455A64;" d="M130.258,307.837c0,0-4.772,1.67-7.181,5.576
						c-2.409,3.906-4.708,10.196-6.321,21.357c0,0,3.019,4.127,10.895,0.697c0,0,3.426-14.242,3.732-19.871
						C131.717,309.457,130.258,307.837,130.258,307.837z"/>
					<g id="XMLID_551_">
						<g id="XMLID_613_">
							<path id="XMLID_643_" style="fill:#263238;" d="M138.03,286.511c0.06-1.625,1.448-3.243,3.056-3.758l0.15-0.048
								c1.607-0.515,3.118,0.176,3.345,1.708c0.257,1.731-1.09,3.691-2.865,4.259l-0.471,0.151
								C139.468,289.392,137.962,288.346,138.03,286.511z M140.952,283.312c-1.566,0.501-2.731,2.305-2.328,3.802
								c0.298,1.109,1.464,1.564,2.688,1.172l0.281-0.09c1.224-0.392,2.304-1.565,2.477-2.825c0.234-1.701-1.081-2.711-2.646-2.209
								L140.952,283.312z"/>
						</g>
						<g id="XMLID_556_">
							<path id="XMLID_557_" style="fill:#263238;" d="M146.8,283.688c0.06-1.625,1.448-3.243,3.055-3.758l0.15-0.048
								c1.607-0.515,3.118,0.176,3.345,1.708c0.257,1.731-1.09,3.691-2.865,4.259l-0.471,0.151
								C148.238,286.57,146.732,285.524,146.8,283.688z M149.722,280.49c-1.566,0.501-2.731,2.305-2.328,3.802
								c0.298,1.109,1.464,1.564,2.688,1.172l0.281-0.09c1.224-0.392,2.304-1.565,2.477-2.825c0.234-1.701-1.081-2.711-2.646-2.209
								L149.722,280.49z"/>
						</g>
						<g id="XMLID_554_">
							<path id="XMLID_555_" style="fill:#263238;" d="M144.259,283.859c0.315-0.389,0.792-0.731,1.313-0.924
								c0.599-0.223,1.139-0.197,1.435,0.073l0.394-0.438c-0.411-0.376-1.096-0.426-1.882-0.133
								c-0.635,0.236-1.208,0.646-1.605,1.131C143.766,283.749,144.154,283.989,144.259,283.859z"/>
						</g>
						<g id="XMLID_552_">
							<path id="XMLID_553_" style="fill:#263238;" d="M132.439,288.467l5.869-1.877l-0.027-0.507l-6.171,1.973
								C132.233,288.185,132.35,288.316,132.439,288.467z"/>
						</g>
					</g>
				</g>
			</g>
		</g>
		<g id="XMLID_1423_">
			<g id="XMLID_1496_">
				<path id="XMLID_1611_" style="fill:#E0E0E0;" d="M164.868,323.574l-0.06-2.925l-3.477-1.983l0,0l-0.003-0.001v0
					c-0.284-0.163-0.676-0.139-1.109,0.111l-48.483,27.991c-0.868,0.501-1.572,1.721-1.572,2.723l0,14.441
					c0,0.491,0.171,0.836,0.445,1.005v0.004l0.015,0.008c0.001,0.001,0.003,0.001,0.004,0.002l3.481,1.986l0.007-3.466
					l46.104-26.571c0.869-0.501,1.573-1.719,1.573-2.722v-10.604H164.868z"/>
				<path id="XMLID_1574_" style="fill:#FAFAFA;" d="M164.808,320.649l-3.477-1.983l0,0l-0.003-0.001v0
					c-0.284-0.163-0.676-0.139-1.109,0.111l-48.483,27.991c-0.379,0.219-0.723,0.579-0.994,0.994l4.929,2.846l46.121-26.048
					L164.808,320.649z"/>
				<path id="XMLID_1573_" style="fill:#F0F0F0;" d="M115.21,348.749l48.483-27.991c0.868-0.501,1.572-0.095,1.572,0.908v14.494
					c0,1.003-0.704,2.222-1.573,2.722l-48.481,27.941c-0.869,0.501-1.573,0.094-1.573-0.909l0-14.441
					C113.638,350.47,114.342,349.25,115.21,348.749z"/>
			</g>
			<g id="stars_1_">
				<path id="XMLID_1495_" style="fill:#27DEBF;" d="M119.826,350.098l0.882,1.874c0.056,0.118,0.163,0.16,0.288,0.113l1.972-0.757
					c0.313-0.12,0.438,0.321,0.212,0.746l-1.427,2.679c-0.09,0.169-0.131,0.361-0.11,0.514l0.337,2.425
					c0.053,0.385-0.274,0.891-0.554,0.857l-1.764-0.218c-0.111-0.014-0.244,0.063-0.355,0.205l-1.764,2.255
					c-0.28,0.358-0.608,0.23-0.554-0.217l0.337-2.814c0.021-0.177-0.02-0.322-0.11-0.387l-1.427-1.031
					c-0.227-0.164-0.102-0.749,0.212-0.991l1.972-1.521c0.124-0.096,0.232-0.262,0.288-0.445l0.882-2.892
					C119.281,350.034,119.686,349.8,119.826,350.098z"/>
				<path id="XMLID_1427_" style="fill:#27DEBF;" d="M129.81,344.381l0.882,1.874c0.056,0.118,0.163,0.16,0.288,0.113l1.972-0.757
					c0.313-0.12,0.438,0.321,0.212,0.746l-1.427,2.679c-0.09,0.169-0.131,0.361-0.11,0.514l0.337,2.425
					c0.054,0.385-0.274,0.892-0.554,0.857l-1.764-0.218c-0.111-0.014-0.244,0.063-0.355,0.205l-1.764,2.255
					c-0.28,0.358-0.608,0.23-0.554-0.217l0.337-2.814c0.021-0.178-0.02-0.322-0.11-0.387l-1.427-1.031
					c-0.227-0.164-0.102-0.749,0.212-0.991l1.972-1.521c0.124-0.096,0.232-0.262,0.288-0.444l0.882-2.892
					C129.265,344.317,129.67,344.084,129.81,344.381z"/>
				<path id="XMLID_1426_" style="fill:#27DEBF;" d="M139.794,338.665l0.882,1.874c0.056,0.118,0.163,0.16,0.288,0.113l1.972-0.757
					c0.313-0.12,0.438,0.321,0.212,0.747l-1.427,2.679c-0.09,0.169-0.131,0.361-0.11,0.514l0.337,2.425
					c0.054,0.385-0.274,0.891-0.554,0.857l-1.764-0.218c-0.111-0.014-0.244,0.063-0.355,0.205l-1.764,2.255
					c-0.28,0.358-0.608,0.23-0.554-0.217l0.337-2.814c0.021-0.177-0.02-0.322-0.11-0.387l-1.427-1.031
					c-0.227-0.164-0.102-0.749,0.212-0.991l1.972-1.521c0.124-0.096,0.232-0.262,0.288-0.445l0.882-2.892
					C139.249,338.601,139.654,338.367,139.794,338.665z"/>
				<path id="XMLID_1425_" style="fill:#27DEBF;" d="M149.779,332.948l0.882,1.874c0.056,0.118,0.163,0.16,0.288,0.112l1.972-0.757
					c0.313-0.12,0.438,0.321,0.212,0.746l-1.427,2.679c-0.09,0.169-0.131,0.361-0.11,0.514l0.337,2.425
					c0.053,0.385-0.274,0.892-0.554,0.857l-1.764-0.218c-0.111-0.014-0.244,0.063-0.355,0.205l-1.764,2.255
					c-0.28,0.358-0.608,0.23-0.554-0.217l0.337-2.814c0.021-0.177-0.02-0.322-0.11-0.387l-1.427-1.031
					c-0.227-0.164-0.102-0.749,0.212-0.991l1.972-1.521c0.124-0.096,0.232-0.262,0.288-0.445l0.882-2.892
					C149.234,332.884,149.639,332.651,149.779,332.948z"/>
				<path id="XMLID_1424_" style="fill:#E0E0E0;" d="M159.763,327.232l0.882,1.874c0.056,0.118,0.163,0.16,0.288,0.113l1.972-0.757
					c0.313-0.12,0.438,0.321,0.212,0.746l-1.427,2.679c-0.09,0.169-0.131,0.361-0.11,0.514l0.337,2.425
					c0.054,0.385-0.274,0.892-0.554,0.857l-1.764-0.218c-0.111-0.014-0.244,0.063-0.355,0.205l-1.764,2.255
					c-0.28,0.358-0.608,0.23-0.554-0.217l0.337-2.814c0.021-0.177-0.02-0.322-0.11-0.387l-1.427-1.031
					c-0.227-0.164-0.102-0.749,0.212-0.991l1.972-1.521c0.124-0.096,0.232-0.262,0.288-0.445l0.882-2.892
					C159.218,327.168,159.623,326.934,159.763,327.232z"/>
			</g>
		</g>
	</g>
	<g id="XMLID_987_">
		<g id="XMLID_1652_">
			<g id="XMLID_1344_">
				<path id="XMLID_1376_" style="fill:#E0E0E0;" d="M164.868,144.602l-0.06-2.925l-3.477-1.984l0,0l-0.003-0.002v0.001
					c-0.284-0.163-0.676-0.139-1.109,0.111l-48.483,27.991c-0.868,0.501-1.572,1.721-1.572,2.723l0,61.661
					c0,0.491,0.171,0.836,0.445,1.005v0.004l0.015,0.008c0.001,0.001,0.003,0.001,0.004,0.002l3.481,1.986l0.007-3.466l46.104-26.57
					c0.869-0.501,1.573-1.719,1.573-2.722v-57.824H164.868z"/>
				<path id="XMLID_1386_" style="fill:#FAFAFA;" d="M164.808,141.677l-3.477-1.984l0,0l-0.003-0.002v0.001
					c-0.284-0.163-0.676-0.139-1.109,0.111l-48.483,27.991c-0.379,0.219-0.723,0.579-0.994,0.994l4.929,2.846l46.121-26.048
					L164.808,141.677z"/>
				<path id="XMLID_2272_" style="fill:#F0F0F0;" d="M115.21,169.777l48.483-27.991c0.868-0.501,1.572-0.095,1.572,0.908v61.714
					c0,1.003-0.704,2.222-1.573,2.722l-48.481,27.941c-0.869,0.501-1.573,0.094-1.573-0.909l0-61.661
					C113.638,171.498,114.342,170.278,115.21,169.777z"/>
			</g>
			<g id="XMLID_2007_">
				<defs>
					<path id="XMLID_2008_" d="M115.21,169.777l48.483-27.991c0.868-0.501,1.572-0.095,1.572,0.908v61.714
						c0,1.003-0.704,2.222-1.573,2.722l-48.481,27.941c-0.869,0.501-1.573,0.094-1.573-0.909l0-61.661
						C113.638,171.498,114.342,170.278,115.21,169.777z"/>
				</defs>
				<clipPath id="XMLID_00000066516934837989589640000015934832704085774464_">
					<use xlink:href="#XMLID_2008_"  style="overflow:visible;"/>
				</clipPath>
				<g id="XMLID_2012_" style="clip-path:url(#XMLID_00000066516934837989589640000015934832704085774464_);">
					<g id="XMLID_2017_">
						<g id="XMLID_2174_">
							<path id="XMLID_2177_" style="fill:#263238;" d="M155.244,206.333l-26.361,7.303c0,0,0.026-20.032,0-27.04l0,0
								c-0.031-8.397,5.845-16.814,13.124-18.801l0,0c7.279-1.986,13.205,3.211,13.236,11.608l0,0
								C155.27,186.411,155.244,206.333,155.244,206.333z"/>
							<path id="XMLID_2175_" style="fill:#263238;" d="M131.117,177.52l-3.408-2.441c0.653-0.68,1.946-0.685,2.888-0.011
								C131.538,175.742,131.77,176.84,131.117,177.52z"/>
							<path id="XMLID_513_" style="fill:#263238;" d="M131.367,176.874l-1.342-3.971c0.928-0.171,1.98,0.58,2.351,1.677
								C132.746,175.677,132.294,176.704,131.367,176.874z"/>
						</g>
						<path id="XMLID_2270_" style="fill:#995153;" d="M152.808,233.411c-5.442-23.862-11.665-28.073-5.851-33.043
							c5.98-2.276,9.061,0.976,10.103,7.969c0.51,3.419,1.616,17.725,3.006,23.072c1.221,4.697,2.862,10.516,4.687,13.876
							c0.323,0.595,0.866,0.955,1.5,1.046c1.701,0.244,2.203,1.201,3.588,1.906c1.085,0.551,1.886,0.412,1.835,0.794
							c-0.066,0.491-0.561,1.489-1.714,1.692c-0.58,0.102-1.033,0.022-2.032-0.134c0,0,0.999,1.448,2.964,2.72
							c2.662,1.723,3.101,3.405-1.124,5.655c-2.648,1.41-5.124,0.721-8.406-4.643c-0.945-1.546-2.43-3.989-3.308-6.221
							C155.771,242.29,153.684,237.251,152.808,233.411z"/>
						<g id="XMLID_1657_">
							<path id="XMLID_2178_" style="fill:#27DEBF;" d="M137.26,203.247L137.26,203.247c-5.913,2.054-6.328,5.463-7.808,9.466
								c-1.126,3.047-1.139,6.235-0.279,8.876l4.121,12.661c0,0-2.684,5.92-4.169,11.59c10.341,3.894,23.254-3.07,26.363-8.766
								c0.132-1.067-0.668-8.917-1.16-14.054c1.821-5.764,2.302-9.237,1.534-12.518c-1.426-6.091-6.964-10.914-9.414-10.028
								L137.26,203.247z"/>
							<path id="XMLID_2018_" style="opacity:0.1;" d="M139.905,244.243c-3.397-0.018-5.552-3.409-4.654-7.544
								c0.034-0.157,0.069-0.293,0.105-0.404c0.665-2.024,2.094-2.164,2.094-2.164l0,0c-1.34-0.667-1.972-2.255-2.286-3.992
								l-1.557-8.054c0,0-0.28-1.832,0.319-4.27l-4.156-4.437c0,0-0.298,0.32-0.768,0.822c-0.648,2.578-0.551,5.176,0.17,7.39
								l4.121,12.661c0,0-2.545,5.44-4.169,11.59c7.621,2.87,16.634-0.159,22.096-4.23
								C146.906,243.539,142.909,244.26,139.905,244.243z"/>
						</g>
					</g>
					<g id="XMLID_2029_">
						<g id="XMLID_2172_">
							<path id="XMLID_2173_" style="fill:#995153;" d="M150.288,172.39c1.396,0.569,3.131,4.139,2.993,12.653
								c-0.118,7.216-2.127,9.539-3.138,10.326c-1.011,0.787-2.964,1.009-4.865,1.162l0.108,4.334c0,0,3.201,2.167,3.043,4.187
								c-0.158,2.02-4.436,4.081-6.899,2.821c-2.144-1.097-3.99-2.801-4.431-3.223c-0.066-0.064-0.1-0.158-0.1-0.27l-0.007-10.877
								c0,0-1.113,1.557-3.014,0.163c-1.57-1.151-2.106-3.667-0.893-5.427c1.214-1.76,3.468-1.986,4.339-0.187
								c0,0,3.028-0.699,7.051-4.354C148.498,180.044,150.031,175.246,150.288,172.39z"/>
						</g>
						<g id="XMLID_1673_">
							<g id="XMLID_2170_">
								<path id="XMLID_2171_" style="fill:#263238;" d="M146.195,185.136c0.025,0.511-0.305,1.04-0.737,1.181
									c-0.432,0.141-0.801-0.158-0.826-0.67c-0.024-0.511,0.305-1.04,0.737-1.181
									C145.801,184.325,146.171,184.625,146.195,185.136z"/>
							</g>
							<g id="XMLID_2168_">
								<path id="XMLID_2169_" style="fill:#733B3C;" d="M146.426,191.162l1.82,0.173c-0.149,0.641-0.676,1.122-1.179,1.074
									C146.565,192.362,146.278,191.803,146.426,191.162z"/>
							</g>
							<g id="XMLID_2166_">
								<path id="XMLID_2167_" style="fill:#263238;" d="M152.599,180.614l-1.587-0.834c0.287-0.6,0.875-0.9,1.313-0.67
									C152.764,179.341,152.886,180.014,152.599,180.614z"/>
							</g>
							<g id="XMLID_2042_">
								<path id="XMLID_2165_" style="fill:#263238;" d="M152.242,182.832c0.025,0.511-0.305,1.04-0.737,1.181
									c-0.432,0.141-0.801-0.158-0.825-0.669c-0.025-0.511,0.305-1.04,0.737-1.181
									C151.848,182.022,152.218,182.321,152.242,182.832z"/>
							</g>
							<g id="XMLID_2034_">
								<polygon id="XMLID_2040_" style="fill:#733B3C;" points="148.719,182.827 148.694,188.721 151.169,187.159 								"/>
							</g>
							<g id="XMLID_2030_">
								<path id="XMLID_2032_" style="fill:#733B3C;" d="M145.145,196.532c-2.002,0.243-6.123,0.002-6.771-1.7
									c0,0,0.218,1.121,1.452,2.002c1.234,0.88,5.355,1.143,5.355,1.143L145.145,196.532z"/>
							</g>
						</g>
					</g>
					<g id="XMLID_2013_">
						<g id="XMLID_2014_">
							<path id="XMLID_2015_" style="fill:#995153;" d="M118.673,242.529c4.598-22.933,7.498-32.818,12.541-36.309
								c1.482-1.026,3.411-1.692,3.411-1.692c0.692,0.262,0.762,1.775,0.897,2.748c0.478,3.439-0.388,8.959-2.62,13.129
								c0,0-6.709,18.141-7.779,24.238c-0.937,5.335-1.997,12.011-1.939,16.382c0.011,0.785,0.276,1.478,0.74,1.933
								c1.231,1.207,1.235,2.442,2.03,3.928c0.622,1.161,1.301,1.475,1.107,1.826c-0.249,0.451-1.036,1.162-2.014,0.711
								c-0.492-0.227-0.812-0.562-1.526-1.282c0,0,0.194,2.004,1.21,4.377c1.377,3.217,1.042,5.136-3.15,4.982
								c-2.627-0.096-4.276-2.181-4.669-9.365c-0.113-2.07-0.285-5.336-0.069-8.049
								C117.405,253.023,117.809,246.839,118.673,242.529z"/>
						</g>
					</g>
				</g>
			</g>
		</g>
		<g id="XMLID_797_">
			<g id="XMLID_1403_">
				<path id="XMLID_1422_" style="fill:#E0E0E0;" d="M164.868,217.876l-0.06-2.925l-3.477-1.983l0,0l-0.003-0.002v0.001
					c-0.284-0.163-0.676-0.139-1.109,0.111l-48.483,27.991c-0.868,0.501-1.572,1.721-1.572,2.724l0,14.441
					c0,0.491,0.171,0.836,0.445,1.005v0.004l0.015,0.008c0.001,0.001,0.003,0.001,0.004,0.002l3.481,1.986l0.007-3.466
					l46.104-26.571c0.869-0.501,1.573-1.719,1.573-2.722v-10.604H164.868z"/>
				<path id="XMLID_1405_" style="fill:#FAFAFA;" d="M164.808,214.951l-3.477-1.983l0,0l-0.003-0.002v0.001
					c-0.284-0.163-0.676-0.139-1.109,0.111l-48.483,27.991c-0.379,0.219-0.723,0.579-0.994,0.994l4.929,2.846l46.121-26.048
					L164.808,214.951z"/>
				<path id="XMLID_1404_" style="fill:#F0F0F0;" d="M115.21,243.051l48.483-27.991c0.868-0.501,1.572-0.095,1.572,0.908v14.494
					c0,1.003-0.704,2.222-1.573,2.722l-48.481,27.941c-0.869,0.501-1.573,0.094-1.573-0.909l0-14.441
					C113.638,244.771,114.342,243.552,115.21,243.051z"/>
			</g>
			<g id="stars_4_">
				<path id="XMLID_1421_" style="fill:#27DEBF;" d="M119.826,244.399l0.882,1.874c0.056,0.118,0.163,0.16,0.288,0.113l1.972-0.757
					c0.313-0.12,0.438,0.321,0.212,0.746l-1.427,2.679c-0.09,0.169-0.131,0.361-0.11,0.514l0.337,2.425
					c0.053,0.385-0.274,0.891-0.554,0.857l-1.764-0.218c-0.111-0.014-0.244,0.063-0.355,0.205l-1.764,2.255
					c-0.28,0.358-0.608,0.23-0.554-0.217l0.337-2.814c0.021-0.178-0.02-0.322-0.11-0.387l-1.427-1.031
					c-0.227-0.164-0.102-0.749,0.212-0.991l1.972-1.521c0.124-0.096,0.232-0.262,0.288-0.445l0.882-2.892
					C119.281,244.335,119.686,244.102,119.826,244.399z"/>
				<path id="XMLID_1420_" style="fill:#27DEBF;" d="M129.81,238.683l0.882,1.874c0.056,0.118,0.163,0.16,0.288,0.113l1.972-0.757
					c0.313-0.12,0.438,0.321,0.212,0.746l-1.427,2.679c-0.09,0.169-0.131,0.361-0.11,0.514l0.337,2.425
					c0.054,0.385-0.274,0.892-0.554,0.857l-1.764-0.218c-0.111-0.014-0.244,0.063-0.355,0.205l-1.764,2.255
					c-0.28,0.358-0.608,0.23-0.554-0.217l0.337-2.814c0.021-0.178-0.02-0.322-0.11-0.387l-1.427-1.031
					c-0.227-0.164-0.102-0.749,0.212-0.991l1.972-1.521c0.124-0.096,0.232-0.262,0.288-0.445l0.882-2.892
					C129.265,238.619,129.67,238.385,129.81,238.683z"/>
				<path id="XMLID_1419_" style="fill:#27DEBF;" d="M139.794,232.966l0.882,1.874c0.056,0.118,0.163,0.16,0.288,0.113l1.972-0.757
					c0.313-0.12,0.438,0.321,0.212,0.747l-1.427,2.679c-0.09,0.169-0.131,0.361-0.11,0.514l0.337,2.425
					c0.054,0.385-0.274,0.891-0.554,0.857l-1.764-0.218c-0.111-0.014-0.244,0.063-0.355,0.205l-1.764,2.255
					c-0.28,0.358-0.608,0.23-0.554-0.217l0.337-2.814c0.021-0.177-0.02-0.322-0.11-0.387l-1.427-1.031
					c-0.227-0.164-0.102-0.749,0.212-0.991l1.972-1.521c0.124-0.096,0.232-0.262,0.288-0.445l0.882-2.892
					C139.249,232.902,139.654,232.669,139.794,232.966z"/>
				<path id="XMLID_1418_" style="fill:#27DEBF;" d="M149.779,227.25l0.882,1.874c0.056,0.118,0.163,0.16,0.288,0.113l1.972-0.757
					c0.313-0.12,0.438,0.321,0.212,0.746l-1.427,2.679c-0.09,0.169-0.131,0.361-0.11,0.514l0.337,2.425
					c0.053,0.385-0.274,0.892-0.554,0.857l-1.764-0.218c-0.111-0.014-0.244,0.063-0.355,0.205l-1.764,2.255
					c-0.28,0.358-0.608,0.23-0.554-0.217l0.337-2.814c0.021-0.177-0.02-0.322-0.11-0.387l-1.427-1.031
					c-0.227-0.164-0.102-0.749,0.212-0.991l1.972-1.521c0.124-0.096,0.232-0.262,0.288-0.445l0.882-2.892
					C149.234,227.186,149.639,226.952,149.779,227.25z"/>
				<path id="XMLID_1406_" style="fill:#27DEBF;" d="M159.763,221.533l0.882,1.874c0.056,0.118,0.163,0.16,0.288,0.113l1.972-0.757
					c0.313-0.12,0.438,0.321,0.212,0.747l-1.427,2.679c-0.09,0.169-0.131,0.361-0.11,0.514l0.337,2.425
					c0.054,0.385-0.274,0.891-0.554,0.857l-1.764-0.218c-0.111-0.014-0.244,0.063-0.355,0.205l-1.764,2.255
					c-0.28,0.358-0.608,0.23-0.554-0.217l0.337-2.814c0.021-0.177-0.02-0.322-0.11-0.387l-1.427-1.031
					c-0.227-0.164-0.102-0.749,0.212-0.991l1.972-1.521c0.124-0.096,0.232-0.262,0.288-0.445l0.882-2.892
					C159.218,221.469,159.623,221.236,159.763,221.533z"/>
			</g>
		</g>
	</g>
</g>
<g id="Character">
	<g id="XMLID_1800_">
		<g id="XMLID_2514_">
			<g id="XMLID_2553_">
				<path id="XMLID_2554_" style="fill:#263238;" d="M432.742,378.261c0.654,0.265,0.792,1.525,0.836,4.025
					c0.033,1.892,0.363,5.2-1.865,5.809c-2.228,0.609-5.464,0.199-6.843-1.614c-1.721-2.263-2.874-4.247-5.34-7.017
					c-2.139-2.403-4.461-4.653-5.272-7.973c-0.732-3.001-0.038-4.279,2.017-5.101c2.825-1.129,7.133,2.866,9.312,3.529
					C427.464,370.488,432.088,377.997,432.742,378.261z"/>
			</g>
			<g id="XMLID_2550_">
				<path id="XMLID_2551_" style="fill:#FFA8A7;" d="M432.794,375.949l-0.069,3.067c0,0-3.244,2.378-7.754,0.035
					c-0.128-0.298-0.706-4.405-0.706-4.405L432.794,375.949z"/>
			</g>
			<g id="XMLID_2540_">
				<path id="XMLID_2542_" style="fill:#263238;" d="M407.508,395.375c0,0,0.82,2.687,1.241,5.03
					c0.335,1.862,0.805,4.974,0.125,6.354c-0.681,1.38-3.234,2.223-7.159,2.104c-2.543-0.077-6.545,1.561-9.292,3.014
					c-2.838,1.501-8.68,1.992-11.637,1.577c-3.484-0.489-7.058-2.596-7.59-4.055c-0.532-1.459,0.252-2.945,8.563-6.267
					c0.076-0.03,11.528-3.471,15.611-7.778L407.508,395.375z"/>
			</g>
			<g id="XMLID_2523_">
				<path id="XMLID_2524_" style="fill:#FFA8A7;" d="M407.583,392.06c0,0-0.063,2.275-0.081,3.576
					c-0.018,1.301-1.598,3.204-5.57,2.973c-2.79-0.163-4.723-0.958-4.56-3.255l0.075-3.315L407.583,392.06z"/>
			</g>
			<g id="XMLID_2517_">
				<path id="XMLID_2518_" style="fill:#37474F;" d="M435.705,335.297c-1.178-10.052-3.262-16.053-3.262-16.053
					s1.405-13.755,2.225-26.809c0.885-14.099,0.687-31.852,1.035-35.366c0,0-45.33-10.24-46.51,6.056
					c-1.18,16.295,0.495,57.881,0.872,65.06c0.377,7.179,1.473,13.545,2.692,25.194c1.203,11.497,4.689,38.661,4.689,38.661
					c5.139,2.929,10.137,0.021,10.137,0.021s3.939-32.547,3.789-40.824c-0.183-10.107-2.729-18.12-2.729-18.12
					s1.167-13.432,2.193-25.115c1.026-11.683,1.96-17.285,2.251-22.371l0.991-0.464c0,0,0.544,20.208,0.921,27.387
					c0.377,7.179,1.362,14.076,3.136,27.434c1.539,11.588,6.345,36.142,6.345,36.142c5.139,2.93,8.314-0.181,8.314-0.181
					S436.883,345.348,435.705,335.297z"/>
			</g>
			<g id="XMLID_2515_">
				<path id="XMLID_2516_" style="fill:#263238;" d="M413.087,285.63c0,0,11.169-5.195,16.809-9.98c0,0-5.297,7.118-12.108,10.173
					c0,0-2.962,25.021-2.938,24.524l-0.828-24.733L413.087,285.63z"/>
			</g>
		</g>
		<g id="XMLID_1831_">
			<polygon id="XMLID_2513_" style="fill:#FFA8A7;" points="405.345,192.627 407.705,207.519 421.124,206.842 419.558,189.423 			
				"/>
			<g id="XMLID_2506_">
				<path id="XMLID_997_" style="fill:#27DEBF;" d="M423.903,198.346c0,0,7.35-2.602,11.34,4.075
					c3.99,6.677,0.676,18.39,0.676,18.39L423.903,198.346z"/>
				<path id="XMLID_2510_" style="fill:#E6E6E6;" d="M435.296,206.077c-1.236-4.062-6.252-8.566-11.393-7.731
					c-1.194,0.194-2.358,0.391-3.49,0.59c-0.617,2.511-7.036,4.45-13.609,2.902c-1.981,0.52-3.797,1.054-5.446,1.602
					c-4.724,1.568-9.085,5.523-9.821,20.931c0,0-2.38,35.906-2.564,42.856c11.664,4.923,23.908,5.054,30.707,3.729
					c14.154-2.76,15.984-8.564,15.984-8.564s0.764-25.841,0.593-37.013C436.112,215.887,436.145,208.867,435.296,206.077z"/>
				<g id="XMLID_1169_">
					<polygon id="XMLID_1278_" style="fill:#27DEBF;" points="362.87,181.545 334.92,196.131 348.808,234.104 374.891,219.492 					
						"/>
					<polygon id="XMLID_1277_" style="fill:#F5F5F5;" points="361.587,185.262 338.139,197.499 350.43,230.145 372.312,217.887 
											"/>
					<path id="XMLID_1232_" style="opacity:0.15;" d="M356.64,188.785c0,0-0.203-0.52-0.454-1.161
						c-0.251-0.641-2.202-0.259-4.359,0.854l-4.129,2.132c-2.156,1.113-3.702,2.536-3.451,3.177l0.454,1.161L356.64,188.785z"/>
					<g id="XMLID_1171_">
						<path id="XMLID_1175_" style="fill:#37474F;" d="M356.186,184.138c-0.155-0.401-1.004-0.335-1.897,0.147l-1.617,0.873
							c0,0-0.996-2.508-4.715-0.772c-3.719,1.736-2.869,4.644-2.869,4.644s-0.768,0.423-1.716,0.946
							c-0.948,0.522-1.623,1.276-1.508,1.684l0.209,0.738l14.398-7.512C356.471,184.884,356.341,184.539,356.186,184.138z"/>
						<path id="XMLID_1174_" style="fill:#263238;" d="M354.632,185.824c-1.339,0.658-1.866,0.976-1.481,1.965
							c0.44,1.129,0.85,1.94,0.85,1.94l-6.368,3.331c0,0-0.53-1.436-0.763-1.99c-0.232-0.554-0.698-0.819-1.711-0.289l-0.378-0.399
							l10.045-5.12L354.632,185.824z"/>
						<path id="XMLID_1172_" style="fill:#37474F;" d="M356.913,188.845c0,0-0.203-0.52-0.454-1.161
							c-0.251-0.641-2.202-0.259-4.359,0.855l-4.129,2.132c-2.157,1.113-3.702,2.536-3.451,3.177l0.454,1.161L356.913,188.845z"/>
					</g>
				</g>
				<g id="XMLID_550_">
					<path id="XMLID_799_" style="fill:#E0E0E0;" d="M390.828,235.251c0,0,6.923-8.392,8.724-14.554c0,0-1.296,9.124-8.918,17.592
						L390.828,235.251z"/>
				</g>
				<g id="XMLID_544_">
					<g id="XMLID_547_">
						<path id="XMLID_548_" style="fill:#FFA8A7;" d="M400.576,203.759c-5.347,1.605-8.605,1.895-14.513,10.984
							c-5.908,9.089-19.282,26.124-20.564,28.291c-1.783,3.014-2.12,7.597-0.581,10.365c1.437,2.585,4.893,1.062,10.756-4.082
							c5.67-4.975,17.632-18.654,17.632-18.654S399.163,217.84,400.576,203.759z"/>
					</g>
					<g id="XMLID_545_">
						<path id="XMLID_546_" style="fill:#27DEBF;" d="M400.576,203.759c0,0-4.768,0.998-7.731,2.448
							c-0.912,0.446-4.143,1.278-6.587,4.547c-4.801,6.419-11.836,19.391-11.836,19.391s1.608,7.641,11.948,10.609
							c0,0,9.989-12.041,11.355-15.042C400.053,220.593,402.252,211.792,400.576,203.759z"/>
					</g>
				</g>
				<path id="XMLID_542_" style="fill:#FFA8A7;" d="M366.719,254.673c-4.946-0.6-15.625-15.558-18.91-20.678
					c-3.597-5.606-6.948-8.3-10.008-10.561c-5.236-3.868-4.474-9.81-2.189-15.257c0.791-1.886,3.473-0.659,3.473-0.659l0.945,2.585
					l1.637,4.476c1.109,1.029,1.74,1.365,1.814,1.058c0.139-0.577-0.815-2.985-0.792-5.493c0.028-3.018,2.141-1.034,2.773,0.024
					c0.631,1.058,1.369,2.78,2.231,4.987c1.055,2.701,0.619,5.436,1.902,7.277c1.284,1.841,18.519,18.355,18.519,18.355
					L366.719,254.673z"/>
			</g>
			<g id="XMLID_2028_">
				<path id="XMLID_2176_" style="fill:#F28F8F;" d="M395.415,174.355c0,0-3.519,5.34-3.118,5.864
					c0.401,0.525,2.991,0.998,2.991,0.998L395.415,174.355z"/>
			</g>
			<g id="XMLID_2617_">
				<path id="XMLID_2618_" style="fill:#263238;" d="M397.061,177.786c-2.312,0-4.193-1.881-4.193-4.194
					c0-2.312,1.881-4.193,4.193-4.193s4.193,1.881,4.193,4.193C401.254,175.905,399.373,177.786,397.061,177.786z M397.061,170.332
					c-1.798,0-3.261,1.462-3.261,3.261c0,1.798,1.462,3.261,3.261,3.261c1.798,0,3.26-1.463,3.26-3.261
					C400.322,171.794,398.86,170.332,397.061,170.332z"/>
			</g>
			<g id="XMLID_1989_">
				<path id="XMLID_2016_" style="fill:#FFA8A7;" d="M405.186,159.583c-7.121,1.502-9.178,4.633-9.848,15.946
					c-0.701,11.821,0.506,15.537,2.058,17.128c1.049,1.074,6.874,1.268,9.813,0.458c3.678-1.014,11.99-3.96,15.884-9.906
					c4.579-6.996,5.782-16.477,0.879-20.366C417.073,157.369,408.084,158.971,405.186,159.583z"/>
			</g>
			<polygon id="XMLID_2642_" style="fill:#263238;" points="393.26,172.717 405.922,174.355 405.412,175.245 393.26,173.668 			"/>
		</g>
		<g id="XMLID_1801_">
			<g id="XMLID_1809_">
				<g id="XMLID_1810_">
					<path id="XMLID_1820_" style="fill:#263238;" d="M394.552,163.28c0.07,0.071,0.141,0.141,0.213,0.21
						c1.37,1.299,3.125,2.124,4.557,3.355c1.58,1.359,2.659,3.157,3.235,5.149c0.473,1.638,0.657,3.579,2.437,4.339
						c0,0,1.126-4.37,4.808-3.82c3.707,0.553,4.207,5.278,1.872,8.149c-2.337,2.871-4.514,1.77-4.514,1.77s0.115,6.245,2.881,9.781
						c0,0,3.15,1.019,8.941-0.215c3.56-0.759,8.594-5.209,10.71-9.921c4.477-9.967,4.789-18.937-1.574-21.625
						c-0.688-4.593-4.305-6.652-8.427-7.599c-6.166-1.417-11.931,2.243-18.028,0.878c-1.277-0.286-2.519-0.744-3.819-0.904
						c-0.149-0.018-0.307-0.031-0.441,0.036c-0.311,0.156-0.29,0.602-0.2,0.938c0.325,1.219,0.945,2.358,1.793,3.292
						c-2.38,0.164-4.627-0.183-6.909-0.873C391.815,158.782,392.75,161.443,394.552,163.28z"/>
				</g>
			</g>
			<g id="XMLID_1806_">
				<g id="XMLID_1807_">
					<path id="XMLID_1808_" style="fill:#263238;" d="M428.229,161.991l4.262-2.512c-0.694-1.177-2.21-1.568-3.387-0.875
						S427.535,160.814,428.229,161.991z"/>
				</g>
			</g>
			<g id="XMLID_1802_">
				<g id="XMLID_1804_">
					<path id="XMLID_1805_" style="fill:#263238;" d="M404.918,178.826l0.131-4.945c-1.365-0.036-2.502,1.042-2.538,2.407
						C402.475,177.654,403.553,178.79,404.918,178.826z"/>
				</g>
			</g>
		</g>
	</g>
</g>
</svg>
